<svg width="49" height="30" viewBox="0 0 49 30" fill="none" xmlns="http://www.w3.org/2000/svg">
<g clip-path="url(#clip0_5_6460)">
<g clip-path="url(#clip1_5_6460)">
<g clip-path="url(#clip2_5_6460)">
<mask id="mask0_5_6460" style="mask-type:luminance" maskUnits="userSpaceOnUse" x="-25" y="0" width="74" height="30">
<path d="M48.336 0.00195312H-24.7695V29.8952H48.336V0.00195312Z" fill="white"/>
</mask>
<g mask="url(#mask0_5_6460)">
<mask id="mask1_5_6460" style="mask-type:luminance" maskUnits="userSpaceOnUse" x="-33" y="-8" width="93" height="46">
<path d="M-32.6367 -7.99707H59.1466V37.8946H-32.6367V-7.99707Z" fill="white"/>
</mask>
<g mask="url(#mask1_5_6460)">
<path fill-rule="evenodd" clip-rule="evenodd" d="M28.8582 7.20335C28.6403 6.95223 28.3913 6.72086 28.2104 6.44518C28.0494 6.20138 27.8583 5.90517 27.8652 5.6373C27.8824 4.96183 27.579 4.46977 27.1986 3.96305C26.8943 3.55767 26.6758 3.08697 26.428 2.64176C26.2572 2.33374 26.2554 1.79101 25.9484 1.70544C25.6672 1.62688 25.3771 1.94239 25.0646 2.07512C24.5782 1.85458 24.0367 1.4293 23.4653 1.38372C21.6862 1.24158 19.8954 1.236 18.1079 1.19155C17.1146 1.16573 15.9405 1.53447 14.964 1.40125C12.9075 1.11697 11.0398 0.406928 8.98359 0.117555C8.05129 -0.0131085 7.07203 -0.0472066 6.14571 0.0896716C5.25966 0.222247 4.40911 0.615831 3.55438 0.929104C1.89881 1.53558 0.499231 2.55778 -0.564048 3.92847C-1.25936 4.82639 -1.73859 5.90915 -2.21496 6.95414C-2.67602 7.96376 -3.0716 9.01448 -3.38185 10.0813C-3.68887 11.1374 -3.26545 13.4395 -3.63198 14.47C-4.34821 16.4794 -5.84375 16.9021 -5.68337 18.9573C-5.64704 19.4196 -5.46957 20.2198 -4.81896 20.4195C-3.28385 20.8905 -2.2777 21.4048 -1.46874 21.1423C-1.22661 21.0638 -1.16781 20.8446 -1.29533 20.6551C-1.49085 20.3644 -1.90877 19.8426 -2.29933 19.5327C-2.45708 19.4075 -2.4731 19.1729 -2.32849 19.0328C-1.16303 17.9041 0.742074 17.1507 1.75396 15.968C2.71936 17.0828 2.97679 17.9561 3.27293 19.6852C3.39615 20.4046 3.70209 21.4234 4.60499 21.5777C4.93484 21.6339 5.60553 21.7541 6.15001 21.7835C7.23911 21.8425 9.2397 22.0337 9.00271 21.2662C8.85225 20.78 8.61359 20.6662 8.22482 20.4411C7.52569 20.035 6.90794 18.7186 6.89838 17.9334C6.88966 17.208 6.94559 16.4771 7.0394 15.7562C7.05219 15.6591 7.1668 15.2379 7.1668 15.2379C7.1668 15.2379 8.99805 15.2127 10.0123 15.1428C11.0266 15.0728 12.0622 15.0245 12.6527 14.8838C12.8912 15.6989 13.0513 16.5021 13.2041 17.3744C13.4541 18.7961 13.3458 19.734 14.0728 20.9268C14.1618 21.0731 14.5567 21.4411 14.7723 21.5186C15.5862 21.8116 17.0118 21.6542 18.2302 21.6366C18.5878 21.631 19.4953 21.4304 19.26 21.0185C18.904 20.3955 18.2832 20.2857 17.7427 20.1357C17.3178 20.0178 16.8716 19.6307 16.8764 19.0467C16.8865 17.8648 17.0755 17.0688 17.4062 15.7538C17.4345 15.642 17.4809 15.5349 17.5358 15.4322C17.5056 15.4001 17.5955 15.361 17.9654 15.2652C18.4024 15.991 18.4924 16.7477 18.9166 17.4275C19.6414 18.3246 21.4939 19.4052 22.2409 20.3678C22.5309 20.7406 23.3887 21.5027 23.7894 21.6442C24.6084 21.936 26.1458 21.8517 27.0559 21.7691C27.6684 21.7136 27.7108 21.2589 27.374 21.0729C27.1572 20.953 26.8174 20.7653 26.6383 20.6163C26.2745 20.3154 25.8671 19.9784 25.6821 19.5667C24.9287 17.8873 22.8416 16.2189 23.0328 14.3967C23.1653 13.1275 23.1523 11.8419 23.2435 10.5665C23.2565 10.375 23.4486 10.0953 23.6227 10.0327C24.9907 9.53363 26.4131 9.27979 27.8676 9.30258C28.5954 9.31468 28.8382 8.80701 29.1382 8.34013C29.4317 7.8836 29.1459 7.53463 28.8582 7.20335ZM26.4767 9.02834C25.8804 8.67363 26.422 7.48396 26.7132 6.75845C26.7763 6.60102 26.965 6.53425 27.1108 6.62095C27.8611 7.06743 27.5278 8.07195 28.0048 8.56624C28.0853 8.64973 28.044 8.79012 27.9326 8.82278C27.4306 8.96875 26.7215 9.17383 26.4767 9.02834Z" fill="#FFFCF7"/>
<path d="M-17.01 27.5801C-17.0191 27.6533 -17.002 27.6967 -16.9584 27.7105C-16.9149 27.7243 -16.8702 27.7334 -16.8245 27.7379H-16.117C-16.0711 27.7334 -16.0278 27.7243 -15.9865 27.7105C-15.9452 27.6967 -15.9293 27.6556 -15.9384 27.5868L-16.4741 25.9247L-17.01 27.5801ZM-17.5661 29.5511C-17.5865 29.6301 -17.6371 29.6979 -17.707 29.74C-17.7396 29.7611 -17.7765 29.7749 -17.8151 29.7802C-17.8536 29.7856 -17.8929 29.7824 -17.93 29.7709L-18.1294 29.709C-18.1673 29.6983 -18.2027 29.68 -18.2333 29.6551C-18.264 29.6304 -18.2893 29.5997 -18.3079 29.5649C-18.328 29.5311 -18.3408 29.4935 -18.3456 29.4545C-18.3503 29.4155 -18.3469 29.3758 -18.3354 29.3383L-17.0441 25.0662C-17.0213 24.9838 -16.9756 24.9151 -16.907 24.8601C-16.838 24.8052 -16.7649 24.7778 -16.6871 24.7778H-16.2544C-16.1766 24.7778 -16.1033 24.8052 -16.0345 24.8601C-15.966 24.9151 -15.9202 24.9838 -15.8971 25.0662L-14.6059 29.3383C-14.5945 29.3758 -14.5911 29.4155 -14.5958 29.4545C-14.6005 29.4934 -14.6133 29.5311 -14.6333 29.5649C-14.6519 29.5997 -14.6773 29.6304 -14.708 29.6551C-14.7387 29.6799 -14.774 29.6983 -14.812 29.709L-15.0113 29.7709C-15.0485 29.7824 -15.0877 29.7856 -15.1263 29.7802C-15.1648 29.7749 -15.2017 29.7611 -15.2344 29.74C-15.3043 29.698 -15.3549 29.6301 -15.3752 29.5511L-15.5881 28.7956C-15.6155 28.6952 -15.6602 28.624 -15.722 28.5829C-15.7838 28.5415 -15.856 28.521 -15.9384 28.521H-17.003C-17.0808 28.5197 -17.1572 28.541 -17.2229 28.5829C-17.2869 28.624 -17.3304 28.695 -17.3532 28.7956L-17.5661 29.5511ZM-12.1061 29.6816C-12.1611 29.7413 -12.2319 29.7709 -12.3189 29.7709H-12.5387C-12.6166 29.7709 -12.6854 29.7413 -12.7448 29.6816C-12.8044 29.6222 -12.834 29.5535 -12.834 29.4756V25.0938C-12.834 25.0068 -12.8044 24.9312 -12.7448 24.8671C-12.6854 24.803 -12.6166 24.771 -12.5387 24.771H-12.3188C-12.2777 24.771 -12.2376 24.7802 -12.1988 24.7984C-12.16 24.8166 -12.1176 24.8511 -12.0717 24.9013L-9.79143 28.15V25.1006C-9.79143 25.0091 -9.76179 24.9323 -9.70228 24.8705C-9.64276 24.8085 -9.57416 24.7778 -9.49624 24.7778H-9.27634C-9.18946 24.7778 -9.11835 24.8085 -9.06337 24.8705C-9.00864 24.9323 -8.98103 25.0092 -8.98103 25.1006V29.4756C-8.98103 29.5673 -9.00864 29.6405 -9.06337 29.6955C-9.11835 29.7504 -9.18934 29.7778 -9.27634 29.7778H-9.50986C-9.55098 29.7778 -9.59233 29.7676 -9.63356 29.7468C-9.67467 29.7262 -9.71148 29.6911 -9.74327 29.6405L-12.0235 26.3918V29.4756C-12.0235 29.5537 -12.0511 29.6222 -12.1061 29.6816ZM-6.13766 25.6158C-6.21558 25.6158 -6.28071 25.6432 -6.33353 25.6981C-6.35911 25.7244 -6.3793 25.7555 -6.39293 25.7896C-6.40643 25.8237 -6.41301 25.8602 -6.41241 25.8969V28.6658C-6.41241 28.7435 -6.38612 28.8087 -6.33353 28.8612C-6.30796 28.887 -6.27736 28.9073 -6.24366 28.921C-6.20996 28.9345 -6.17387 28.941 -6.13754 28.9401C-6.13754 28.9445 -6.08161 28.9468 -5.96939 28.9468H-5.05932C-4.95403 28.9468 -4.85663 28.9229 -4.76724 28.8751C-4.67808 28.8269 -4.6016 28.7664 -4.5373 28.6933C-4.47324 28.6203 -4.42293 28.5414 -4.38624 28.4569C-4.34967 28.3723 -4.33126 28.2937 -4.33126 28.2203V26.3423C-4.33126 26.2693 -4.34967 26.1904 -4.38624 26.1059C-4.424 26.0197 -4.47503 25.9398 -4.5373 25.8693C-4.60243 25.7954 -4.68035 25.7339 -4.76724 25.6876C-4.85711 25.6396 -4.9575 25.615 -5.05932 25.6158H-6.13766ZM-6.9275 29.771C-7.01916 29.771 -7.09469 29.7413 -7.15409 29.6818C-7.2136 29.6224 -7.24336 29.5511 -7.24336 29.4688V25.0867C-7.24336 25.0045 -7.2136 24.9336 -7.15409 24.874C-7.09469 24.8146 -7.01916 24.7849 -6.9275 24.7849H-5.05932C-4.82592 24.7849 -4.61068 24.8294 -4.41373 24.9187C-4.21689 25.0079 -4.04624 25.1225 -3.90199 25.2621C-3.76097 25.3973 -3.64671 25.5582 -3.56545 25.7359C-3.48537 25.9123 -3.44534 26.0852 -3.44534 26.2545V28.3148C-3.44534 28.4889 -3.48514 28.6619 -3.56545 28.8335C-3.64851 29.0093 -3.76252 29.1686 -3.90199 29.304C-4.05018 29.4487 -4.22347 29.565 -4.41349 29.6473C-4.61068 29.7343 -4.82592 29.7778 -5.05932 29.7778L-6.9275 29.771ZM-0.512568 25.609C-0.590488 25.609 -0.655622 25.6364 -0.708447 25.6913C-0.73414 25.7176 -0.754337 25.7488 -0.767841 25.783C-0.781345 25.8172 -0.788038 25.8537 -0.787321 25.8906V26.5499C-0.787321 26.6278 -0.76115 26.6932 -0.708447 26.7455C-0.655622 26.7981 -0.59049 26.8246 -0.512449 26.8246H0.517605C0.558359 26.8236 0.598873 26.831 0.636637 26.8462C0.674522 26.8615 0.70882 26.8843 0.737503 26.9132C0.7969 26.9721 0.826778 27.0448 0.826778 27.1311V27.3492C0.826778 27.4352 0.7969 27.508 0.737503 27.5672C0.709896 27.5956 0.676674 27.6181 0.640104 27.6332C0.603415 27.6485 0.564096 27.6561 0.524418 27.6556H-0.512568C-0.590488 27.6556 -0.655622 27.682 -0.708447 27.7346C-0.734261 27.7602 -0.754576 27.7906 -0.76808 27.8242C-0.781704 27.8579 -0.788158 27.894 -0.787321 27.9303V28.6723C-0.787321 28.7502 -0.76115 28.8153 -0.708447 28.8679C-0.655622 28.9205 -0.59049 28.9468 -0.512449 28.9468H1.74712C1.83401 28.9468 1.90727 28.9767 1.96702 29.0359C2.0263 29.0956 2.05629 29.1691 2.05629 29.2558V29.4619C2.05629 29.5491 2.0263 29.6233 1.96702 29.685C1.93894 29.7151 1.90487 29.7389 1.86699 29.7549C1.82911 29.7708 1.78823 29.7787 1.74712 29.7778H-1.30241C-1.39407 29.7778 -1.4696 29.7482 -1.529 29.6887C-1.55816 29.66 -1.58111 29.6258 -1.5964 29.5879C-1.61182 29.5502 -1.61923 29.5096 -1.61827 29.4688V25.08C-1.61827 24.9977 -1.58863 24.9266 -1.529 24.8672C-1.4696 24.8078 -1.39635 24.7778 -1.3091 24.7778H1.74712C1.78776 24.7725 1.82911 24.7773 1.86747 24.7919C1.90583 24.8064 1.94001 24.8301 1.96702 24.8611C2.0263 24.9256 2.05629 25.0019 2.05629 25.0895V25.2973C2.05713 25.3383 2.04972 25.3791 2.03442 25.4172C2.01901 25.4553 1.99618 25.4898 1.96702 25.5188C1.93858 25.548 1.90428 25.5712 1.86651 25.5868C1.82863 25.6023 1.788 25.6098 1.74712 25.609H-0.512568ZM6.64045 24.9083C6.83501 24.9953 7.00101 25.1086 7.13845 25.2483C7.27337 25.3844 7.38273 25.5439 7.46125 25.7187C7.53929 25.8927 7.57801 26.0646 7.57801 26.2338V26.2407C7.57801 26.4147 7.55972 26.5647 7.52303 26.6906C7.48646 26.8166 7.43722 26.9253 7.37532 27.0168C7.31676 27.105 7.24493 27.1839 7.16247 27.2503C7.08336 27.3138 6.99958 27.3712 6.91186 27.422C6.82485 27.4725 6.76629 27.5183 6.73666 27.5594C6.7069 27.6007 6.69208 27.6419 6.69208 27.683C6.69208 27.7244 6.70224 27.7645 6.72303 27.8032C6.74371 27.8422 6.76522 27.8823 6.78828 27.9234L7.48861 29.2489C7.5253 29.3269 7.53343 29.4047 7.51276 29.4824C7.4922 29.5606 7.44511 29.6199 7.37197 29.6611L7.20023 29.7504C7.12435 29.7868 7.03806 29.7953 6.95644 29.7744C6.91664 29.7659 6.87935 29.748 6.8478 29.7224C6.81613 29.6967 6.79103 29.664 6.77442 29.6267L5.64123 27.5113C5.60012 27.4334 5.58865 27.3545 5.60681 27.2745C5.6251 27.1943 5.67326 27.136 5.75106 27.0993L6.03275 26.9688C6.23878 26.8772 6.39199 26.7754 6.49286 26.6632C6.59348 26.551 6.6395 26.4079 6.63029 26.2338C6.63029 26.1652 6.61655 26.0943 6.58894 26.0208C6.56098 25.947 6.52034 25.8785 6.46883 25.8185C6.41625 25.7565 6.351 25.7062 6.27308 25.6673C6.19516 25.6283 6.10361 25.6088 5.99833 25.6088H5.07798C5.00018 25.6088 4.93481 25.6364 4.88222 25.6913C4.85653 25.7176 4.83621 25.7487 4.82271 25.783C4.80908 25.8172 4.80251 25.8537 4.80323 25.8906C4.79857 26.5634 4.79642 27.1612 4.79642 27.6832V28.9125C4.79642 29.0817 4.79857 29.2672 4.80323 29.4686C4.80323 29.5556 4.77395 29.6289 4.71479 29.6885C4.68647 29.7176 4.65253 29.7404 4.61512 29.7559C4.57759 29.7712 4.53732 29.7787 4.49681 29.7777H4.29256C4.20173 29.7777 4.1268 29.748 4.06788 29.6885C4.03884 29.6598 4.01602 29.6255 4.00072 29.5877C3.98554 29.5499 3.97813 29.5094 3.97909 29.4686V25.0798C3.97909 24.9973 4.00861 24.9265 4.06764 24.8668C4.12668 24.8074 4.19934 24.7777 4.28563 24.7777H5.99833C6.23197 24.7777 6.44577 24.8213 6.64045 24.9083ZM10.7178 29.4756C10.7178 29.558 10.6881 29.6291 10.6286 29.6885C10.6001 29.7176 10.5658 29.7406 10.528 29.7559C10.4902 29.7712 10.4497 29.7787 10.409 29.7777H10.2029C10.1205 29.7777 10.0483 29.7481 9.98661 29.6885C9.95708 29.6616 9.93354 29.6286 9.91753 29.592C9.90152 29.5553 9.89351 29.5156 9.89387 29.4756V25.087C9.89387 24.9953 9.92362 24.9198 9.98302 24.8601C10.0427 24.8007 10.1135 24.771 10.196 24.771H10.409C10.4958 24.771 10.5693 24.8007 10.6287 24.8601C10.6881 24.9198 10.718 24.993 10.718 25.08L10.7178 29.4756ZM13.638 29.6816C13.583 29.7413 13.5121 29.7709 13.4251 29.7709H13.2052C13.1274 29.7709 13.0586 29.7413 12.9993 29.6816C12.9397 29.6222 12.9099 29.5535 12.9099 29.4756V25.0938C12.9099 25.0068 12.9397 24.9312 12.9992 24.8671C13.0587 24.803 13.1274 24.771 13.2054 24.771H13.4251C13.4664 24.771 13.5064 24.7802 13.5452 24.7984C13.5841 24.8166 13.6265 24.8511 13.6724 24.9013L15.9527 28.15V25.1006C15.9527 25.0091 15.9823 24.9323 16.0419 24.8705C16.1013 24.8085 16.17 24.7778 16.248 24.7778H16.4679C16.5546 24.7778 16.6256 24.8085 16.6807 24.8705C16.7356 24.9323 16.7631 25.0092 16.7631 25.1006V29.4756C16.7631 29.5673 16.7356 29.6405 16.6807 29.6955C16.6257 29.7504 16.5546 29.7778 16.4679 29.7778H16.2342C16.1931 29.7778 16.1519 29.7676 16.1105 29.7468C16.0694 29.7262 16.0325 29.6911 16.0006 29.6405L13.7203 26.3918V29.4756C13.7203 29.5537 13.693 29.6222 13.638 29.6816ZM18.5282 26.131C18.5282 25.815 18.598 25.5484 18.7377 25.3309C18.8773 25.1134 19.0456 24.9565 19.2425 24.8604C19.3569 24.8054 19.5011 24.7598 19.6753 24.7229C19.849 24.6864 20.0919 24.668 20.4032 24.668C20.7235 24.668 20.9698 24.6874 21.1417 24.7263C21.3133 24.7654 21.4495 24.8099 21.5501 24.8601C21.6601 24.9154 21.7598 24.994 21.8489 25.0972C21.936 25.1972 22.013 25.3052 22.0791 25.4202C22.143 25.5323 22.1921 25.6432 22.2267 25.7531C22.261 25.8629 22.2782 25.9523 22.2782 26.0208V26.2407C22.2782 26.3782 22.2071 26.4468 22.0653 26.4468L21.7288 26.4537C21.6371 26.4537 21.5743 26.4342 21.54 26.3954C21.5056 26.3566 21.4837 26.3026 21.4746 26.2339C21.4607 26.0784 21.4171 25.9419 21.3436 25.8253C21.2702 25.7085 21.1762 25.625 21.0611 25.5746C21.0149 25.5505 20.9663 25.5311 20.9165 25.5163C20.8747 25.5048 20.832 25.4967 20.789 25.4921C20.7397 25.4873 20.6903 25.4851 20.6408 25.4853H20.4272C20.2527 25.4853 20.1149 25.491 20.014 25.5025C19.9127 25.514 19.8256 25.538 19.752 25.5746C19.6373 25.6295 19.5407 25.7154 19.4625 25.8322C19.3845 25.949 19.3454 26.0852 19.3454 26.2407V28.3219C19.3454 28.4777 19.3845 28.6137 19.4624 28.7306C19.5405 28.8473 19.6369 28.9329 19.7518 28.988C19.8251 29.0247 19.9123 29.0488 20.0131 29.0602C20.1143 29.0717 20.252 29.0774 20.4265 29.0774H20.6397C20.6948 29.0774 20.7442 29.0751 20.7877 29.0704C20.8314 29.0659 20.8737 29.058 20.9151 29.0463C20.9564 29.0351 21.0046 29.0156 21.0597 28.988C21.1561 28.9467 21.2411 28.8781 21.3143 28.782C21.3419 28.7406 21.358 28.6939 21.3626 28.6413C21.3673 28.5905 21.3626 28.5392 21.3488 28.4903C21.3369 28.4454 21.3145 28.4042 21.2834 28.3699C21.2701 28.3547 21.2536 28.3427 21.2352 28.3343C21.2168 28.326 21.1969 28.3219 21.1767 28.322C21.1629 28.322 21.1285 28.3231 21.0735 28.3252C21.0151 28.3276 20.9565 28.3288 20.898 28.3287C20.8358 28.3287 20.7752 28.3264 20.7155 28.322C20.656 28.3172 20.612 28.3105 20.5847 28.3013C20.5066 28.2693 20.4585 28.2155 20.44 28.1398C20.4217 28.0643 20.4126 28.006 20.4126 27.9645V27.8068C20.4126 27.7198 20.4424 27.6465 20.5018 27.5869C20.5618 27.5275 20.6352 27.4977 20.7224 27.4977H21.9892C22.0669 27.4977 22.1348 27.5275 22.1921 27.5869C22.2495 27.6465 22.2782 27.7198 22.2782 27.8068V28.4181C22.2725 28.5599 22.2552 28.7012 22.2267 28.8403C22.1969 28.9893 22.1566 29.1117 22.1066 29.2079C22.0608 29.2887 22.0053 29.3635 21.9417 29.431C21.8821 29.4928 21.7929 29.5582 21.6738 29.6268C21.6524 29.6395 21.6319 29.6532 21.6122 29.6681C21.593 29.6822 21.5721 29.6937 21.55 29.7023C21.4495 29.7528 21.3133 29.7973 21.1417 29.8362C20.9698 29.8751 20.7236 29.8947 20.4032 29.8947C20.0919 29.8947 19.8492 29.8763 19.6753 29.8398C19.5011 29.8031 19.3569 29.7573 19.2425 29.7023C19.0456 29.6062 18.8773 29.4494 18.7377 29.2318C18.598 29.0144 18.5282 28.7478 18.5282 28.4318V26.131ZM29.9812 27.6919C29.8943 27.6919 29.8211 27.66 29.7615 27.5967C29.702 27.5329 29.6724 27.458 29.6724 27.3718V27.2355C29.6724 27.1494 29.702 27.0744 29.7615 27.0108C29.8211 26.9471 29.892 26.9152 29.9745 26.9152L30.3455 26.8882C30.4049 26.8882 30.4665 26.8745 30.5309 26.8468C30.595 26.8191 30.6533 26.7766 30.7059 26.7191C30.7585 26.6614 30.8021 26.5911 30.8365 26.5083C30.8708 26.4255 30.888 26.329 30.888 26.2182C30.888 26.1494 30.8743 26.0781 30.8466 26.0044C30.8187 25.9301 30.7781 25.8612 30.7266 25.8008C30.6739 25.7387 30.6086 25.6869 30.5309 25.6453C30.4528 25.6039 30.3614 25.5832 30.2561 25.5832C30.2561 25.5786 30.2103 25.5762 30.1186 25.5762H29.8062C29.6894 25.5762 29.5761 25.5776 29.4663 25.5798C29.3564 25.5822 29.283 25.5833 29.2464 25.5833C29.2099 25.5825 29.1735 25.5894 29.1397 25.6036C29.106 25.6177 29.0757 25.6389 29.0507 25.6656C29.025 25.6919 29.0047 25.7231 28.9912 25.7573C28.9776 25.7915 28.971 25.8281 28.9717 25.8649V28.7358C28.9717 28.8138 28.998 28.8789 29.0507 28.9315C29.1033 28.9841 29.1685 29.0105 29.2464 29.0105H30.2491C30.3543 29.0105 30.4461 28.9898 30.5239 28.9487C30.6018 28.9072 30.6683 28.856 30.7231 28.7942C30.7781 28.7323 30.8192 28.6647 30.8467 28.5916C30.8743 28.5183 30.888 28.4472 30.888 28.3787C30.888 28.2688 30.8719 28.1737 30.8399 28.0935C30.811 28.0184 30.7678 27.9497 30.7128 27.8909C30.6634 27.8383 30.6037 27.7963 30.5376 27.7673C30.4788 27.7413 30.4162 27.725 30.3523 27.7192L29.9812 27.6919ZM30.311 29.7865C29.963 29.782 29.6516 29.7796 29.377 29.7796H28.7383C28.651 29.7796 28.5572 29.782 28.4565 29.7865C28.3649 29.7865 28.2892 29.7556 28.2299 29.6937C28.1704 29.6319 28.1407 29.5599 28.1407 29.4775V25.0956C28.1407 25.0131 28.1704 24.9422 28.2299 24.8826C28.2894 24.8232 28.3649 24.7935 28.4565 24.7935H30.3041C30.5378 24.7935 30.7403 24.83 30.9119 24.9032C31.0837 24.9765 31.2279 25.0737 31.3447 25.1952C31.4606 25.3152 31.5506 25.4578 31.609 25.614C31.6684 25.7721 31.7029 25.9381 31.7122 26.112C31.7122 26.1532 31.7098 26.2116 31.7052 26.2873C31.6997 26.3693 31.6883 26.4507 31.6711 26.5311C31.6513 26.6222 31.6249 26.7116 31.5919 26.7988C31.558 26.8895 31.5155 26.977 31.465 27.0598C31.4411 27.1023 31.4135 27.1425 31.3824 27.1801C31.3504 27.219 31.3343 27.2592 31.3343 27.3003C31.3343 27.3369 31.3503 27.3746 31.3824 27.4133C31.4144 27.4525 31.4442 27.4926 31.4717 27.5337C31.5224 27.6171 31.5639 27.7058 31.5953 27.7982C31.6272 27.8921 31.6525 27.9826 31.6711 28.0696C31.6892 28.1566 31.7007 28.2377 31.7052 28.3134C31.7098 28.3889 31.7122 28.4472 31.7122 28.4885L31.719 28.4816C31.7105 28.6519 31.6757 28.8199 31.6161 28.9795C31.558 29.1351 31.4679 29.2766 31.3515 29.3949C31.2347 29.5142 31.0905 29.6091 30.9189 29.6802C30.7471 29.7511 30.5444 29.7865 30.311 29.7865ZM34.7616 25.6174C34.6834 25.6174 34.6184 25.645 34.5656 25.6999C34.5399 25.7262 34.5197 25.7574 34.5062 25.7916C34.4927 25.8258 34.4861 25.8623 34.4868 25.8992V26.5585C34.4868 26.6363 34.5131 26.7015 34.5657 26.754C34.6183 26.8067 34.6837 26.833 34.7616 26.833H35.7918C35.8324 26.8321 35.8729 26.8395 35.9107 26.8546C35.9484 26.8699 35.9827 26.8926 36.0114 26.9217C36.0711 26.9806 36.1007 27.0533 36.1007 27.1397V27.3577C36.1015 27.3982 36.0941 27.4384 36.0788 27.4759C36.0634 27.5134 36.0405 27.5473 36.0114 27.5756C35.9838 27.604 35.9507 27.6266 35.9141 27.6417C35.8776 27.6569 35.8382 27.6646 35.7986 27.6641H34.7616C34.6834 27.6641 34.6184 27.6905 34.5656 27.7431C34.5398 27.7687 34.5195 27.7992 34.506 27.8329C34.4923 27.8666 34.4859 27.9027 34.4868 27.9391V28.6805C34.4868 28.7586 34.5131 28.8236 34.5657 28.8761C34.6183 28.929 34.6837 28.9551 34.7616 28.9551H37.021C37.1083 28.9551 37.1814 28.985 37.2409 29.0444C37.3004 29.1041 37.3302 29.1773 37.3302 29.2643V29.4702C37.3302 29.5574 37.3004 29.6316 37.2409 29.6935C37.2128 29.7235 37.1788 29.7473 37.1409 29.7631C37.103 29.7792 37.0622 29.7871 37.021 29.7862H33.9716C33.8801 29.7862 33.8043 29.7566 33.745 29.6969C33.7159 29.6684 33.6929 29.6342 33.6776 29.5963C33.6622 29.5585 33.6548 29.518 33.6556 29.4772V25.0884C33.6556 25.0059 33.6855 24.9351 33.7449 24.8754C33.8046 24.816 33.8778 24.7863 33.9648 24.7863H37.021C37.0618 24.7808 37.1031 24.7856 37.1415 24.8001C37.1799 24.8146 37.214 24.8384 37.2409 24.8695C37.3004 24.9341 37.3302 25.0102 37.3302 25.0981V25.3056C37.3302 25.3934 37.3004 25.4673 37.2409 25.5272C37.2125 25.5565 37.1783 25.5797 37.1404 25.5952C37.1025 25.6108 37.0619 25.6183 37.021 25.6174H34.7616ZM40.4376 27.5887C40.4284 27.6619 40.4456 27.7054 40.4892 27.7191C40.5327 27.7329 40.5776 27.7421 40.6231 27.7465H41.3306C41.3763 27.7421 41.4198 27.7329 41.4612 27.7191C41.5022 27.7054 41.5183 27.6642 41.5092 27.5955L40.9734 25.9336L40.4376 27.5887ZM39.8815 29.5597C39.8612 29.6389 39.8105 29.7066 39.7405 29.7486C39.7079 29.7697 39.6709 29.7835 39.6323 29.7888C39.5938 29.7942 39.5545 29.7911 39.5174 29.7796L39.3181 29.7176C39.2803 29.7069 39.245 29.6886 39.2143 29.6638C39.1837 29.639 39.1583 29.6084 39.1397 29.5736C39.0985 29.5003 39.0892 29.4248 39.1121 29.3469L40.4033 25.075C40.4261 24.9926 40.472 24.9237 40.5407 24.869C40.6093 24.8138 40.6827 24.7864 40.7606 24.7864H41.1932C41.2709 24.7864 41.3441 24.8138 41.4131 24.869C41.4816 24.9237 41.5274 24.9926 41.5503 25.075L42.8415 29.347C42.8529 29.3847 42.8563 29.4242 42.8516 29.4632C42.8469 29.5023 42.8341 29.5398 42.814 29.5736C42.7955 29.6084 42.7702 29.639 42.7395 29.6637C42.7087 29.6885 42.6735 29.7069 42.6356 29.7176L42.4364 29.7798C42.3992 29.7912 42.36 29.7943 42.3214 29.789C42.2829 29.7836 42.246 29.7697 42.2134 29.7486C42.1432 29.7067 42.0926 29.6389 42.0724 29.5597L41.8593 28.8044C41.8319 28.7036 41.7872 28.6326 41.7254 28.5915C41.6636 28.5501 41.5916 28.5296 41.5092 28.5296H40.4444C40.3667 28.5283 40.2904 28.5498 40.2247 28.5915C40.1607 28.6326 40.1172 28.7036 40.0942 28.8043L39.8815 29.5597ZM47.3984 24.9169C47.593 25.0039 47.7591 25.1172 47.8964 25.2569C48.0314 25.3932 48.1407 25.5525 48.2192 25.7273C48.297 25.9015 48.3359 26.0732 48.3359 26.2425V26.2493C48.3359 26.4236 48.3177 26.5733 48.2811 26.6992C48.2444 26.8252 48.1952 26.9339 48.1334 27.0254C48.0747 27.1136 48.0029 27.1924 47.9205 27.2589C47.8413 27.3224 47.7576 27.3798 47.6698 27.4306C47.5827 27.4811 47.5244 27.5269 47.4948 27.5681C47.4648 27.6092 47.4501 27.6505 47.4501 27.6916C47.4501 27.7329 47.4603 27.7731 47.4809 27.8118C47.5016 27.8508 47.5232 27.8909 47.5461 27.932L48.2467 29.2576C48.2833 29.3355 48.2914 29.4133 48.2707 29.4913C48.2502 29.5689 48.2032 29.6285 48.1298 29.6697L47.9582 29.759C47.8823 29.7954 47.796 29.8039 47.7144 29.783C47.6746 29.7745 47.6373 29.7567 47.6058 29.731C47.5741 29.7053 47.549 29.6726 47.5325 29.6353L46.3992 27.52C46.358 27.4423 46.3466 27.3632 46.3648 27.2831C46.383 27.203 46.4312 27.1446 46.509 27.1079L46.7907 26.9774C46.9968 26.8858 47.1501 26.784 47.2507 26.6718C47.3515 26.5596 47.3974 26.4165 47.3883 26.2425C47.3883 26.1738 47.3744 26.1029 47.347 26.0294C47.319 25.9554 47.2783 25.887 47.2268 25.827C47.1742 25.7651 47.109 25.7148 47.0311 25.6759C46.9531 25.637 46.8616 25.6174 46.7563 25.6174H45.836C45.7582 25.6174 45.6928 25.645 45.6402 25.6999C45.6145 25.7262 45.5942 25.7573 45.5807 25.7916C45.5671 25.8258 45.5605 25.8623 45.5612 25.8992C45.5565 26.5722 45.5544 27.1698 45.5544 27.6916V28.9211C45.5544 29.0904 45.5565 29.2759 45.5612 29.4774C45.5612 29.5644 45.5317 29.6377 45.4728 29.6973C45.4444 29.7263 45.4105 29.7492 45.3731 29.7646C45.3356 29.7799 45.2953 29.7874 45.2548 29.7865H45.0503C44.9595 29.7865 44.8847 29.7567 44.8256 29.6973C44.7967 29.6686 44.774 29.6342 44.7587 29.5964C44.7435 29.5587 44.7361 29.5182 44.7371 29.4774V25.0886C44.7371 25.0063 44.7666 24.9352 44.8256 24.8757C44.8847 24.8164 44.9573 24.7864 45.0436 24.7864H46.7563C46.9899 24.7864 47.2038 24.83 47.3984 24.9169ZM-20.7892 27.9091L-20.1002 24.9966C-20.0774 24.9142 -20.0317 24.8524 -19.963 24.8113C-19.8941 24.7698 -19.8164 24.7609 -19.7292 24.7837L-19.537 24.8318C-19.4502 24.8548 -19.386 24.9029 -19.3447 24.9761C-19.3036 25.0493 -19.2897 25.125 -19.3036 25.2028L-20.4184 29.5712C-20.446 29.7085 -20.5467 29.7773 -20.7207 29.7773H-20.8512C-20.9289 29.7773 -20.9919 29.7624 -21.04 29.7327C-21.0881 29.703 -21.1237 29.6491 -21.1464 29.5712L-22.0372 26.374L-22.9212 29.5712C-22.9443 29.6491 -22.9797 29.703 -23.0277 29.7327C-23.076 29.7624 -23.1389 29.7773 -23.2167 29.7773H-23.3472C-23.5213 29.7773 -23.6219 29.7085 -23.6495 29.5712L-24.7644 25.2027C-24.7781 25.1249 -24.7644 25.0492 -24.723 24.9758C-24.6819 24.9026 -24.6178 24.8546 -24.5306 24.8317L-24.3385 24.7835C-24.2515 24.7607 -24.1735 24.7698 -24.1049 24.8111C-24.0362 24.8523 -23.9905 24.914 -23.9675 24.9964L-23.2785 27.909L-22.4356 25.0379C-22.4128 24.9508 -22.3682 24.8855 -22.3017 24.8419C-22.2354 24.7985 -22.1634 24.7765 -22.0855 24.7765H-21.9824C-21.9046 24.7765 -21.8324 24.7985 -21.766 24.8419C-21.6997 24.8855 -21.6551 24.9508 -21.6321 25.0379L-20.7892 27.9091Z" fill="#FFFCF7"/>
</g>
</g>
</g>
</g>
</g>
<defs>
<clipPath id="clip0_5_6460">
<rect width="73.14" height="30" fill="white" transform="translate(-24.7695)"/>
</clipPath>
<clipPath id="clip1_5_6460">
<rect width="73.14" height="30" fill="white" transform="translate(-24.7695)"/>
</clipPath>
<clipPath id="clip2_5_6460">
<rect width="73.14" height="29.997" fill="white" transform="translate(-24.7695 0.00195312)"/>
</clipPath>
</defs>
</svg>
