<svg width="132" height="26" viewBox="0 0 132 26" fill="none" xmlns="http://www.w3.org/2000/svg">
<g clip-path="url(#clip0_5_6481)">
<g clip-path="url(#clip1_5_6481)">
<g clip-path="url(#clip2_5_6481)">
<path d="M80.5694 1.25995C80.3723 1.29707 80.1312 1.43394 79.9782 1.58937C79.5951 1.97911 79.5091 2.53588 79.7576 3.02537C79.8459 3.19936 80.087 3.44527 80.2562 3.53575C80.5929 3.7167 81.0753 3.7167 81.4113 3.53575C81.5995 3.43599 81.8289 3.19241 81.9245 2.99522C82.3649 2.06494 81.5811 1.06044 80.5694 1.25995Z" fill="#FFFCF7"/>
<path d="M12.2908 1.43489C9.86884 1.60424 7.69975 2.39996 5.79746 3.82206C4.91822 4.47858 4.00883 5.39029 3.34534 6.28113C2.59834 7.28796 1.97893 8.4827 1.57759 9.69135C0.825949 11.9625 0.781872 14.5306 1.45696 16.8366C1.81422 18.0545 2.38955 19.2632 3.09479 20.2816C3.99027 21.5761 5.09453 22.6549 6.39831 23.5179C10.3978 26.1602 15.643 26.1602 19.6448 23.5179C20.3825 23.0307 20.8697 22.6316 21.5263 21.9751C22.0134 21.4903 22.322 21.1353 22.6908 20.6412C25.3889 17.0268 25.825 12.1458 23.8113 8.10227C23.5538 7.58722 23.3821 7.29027 23.0411 6.7799C22.5609 6.05842 22.1363 5.54341 21.5077 4.91936C20.5264 3.94501 19.5358 3.23744 18.3109 2.63892C17.028 2.01254 15.7289 1.63904 14.2627 1.47897C13.9426 1.44186 12.6017 1.41402 12.2908 1.43489ZM9.58811 7.50834C10.4952 7.67305 11.219 8.08366 11.9498 8.84689L12.2444 9.15313V8.40616V7.66146H13.0216H13.7987V8.4038V9.14387L14.1652 8.77961C14.3648 8.57777 14.6199 8.34579 14.7313 8.26234C15.2626 7.86793 15.8124 7.62666 16.455 7.50834C16.6383 7.47354 16.796 7.46426 17.1974 7.46659C17.659 7.46659 17.7355 7.47354 17.9977 7.52922C19.5892 7.86793 20.8396 8.96527 21.336 10.4569C21.8209 11.9138 21.5169 13.5029 20.538 14.6443C19.9534 15.3263 19.0277 15.8622 18.1044 16.0479C17.3366 16.2032 16.5084 16.1522 15.7915 15.9086C15.462 15.7949 14.9471 15.5351 14.6803 15.3472C14.5527 15.2568 14.3207 15.0503 14.1258 14.8554L13.7918 14.5213L13.8057 15.1454C13.8312 16.2427 13.9472 16.7739 14.2627 17.2449C14.5713 17.7019 15.2092 18.1357 15.8472 18.319C16.6684 18.5556 17.8399 18.5324 18.6148 18.261C19.2273 18.0475 19.7678 17.6231 20.1436 17.0593L20.299 16.825H20.8674H21.4335L21.4195 16.876C21.3917 16.9688 21.1086 17.4792 20.9556 17.7065C20.5681 18.2888 20.1576 18.6415 19.501 18.9593C19.0138 19.1936 18.4617 19.3513 17.8585 19.4279C17.4919 19.4743 16.5686 19.4674 16.2346 19.4163C15.3855 19.284 14.7174 19.0149 14.1583 18.5765C13.7013 18.2169 13.3231 17.7228 13.1028 17.1915C13.061 17.0917 13.0169 17.0175 13.0077 17.0245C12.9961 17.0314 12.9868 17.0477 12.9868 17.0593C12.9868 17.0732 12.9334 17.1939 12.8708 17.3284C12.3279 18.4813 11.2886 19.189 9.80855 19.4163C9.47443 19.4674 8.55114 19.4743 8.18461 19.4279C7.5884 19.3513 7.02235 19.1913 6.54213 18.9593C5.88329 18.6415 5.47499 18.2888 5.08757 17.7065C4.93446 17.4792 4.65143 16.9688 4.62359 16.876L4.60968 16.825H5.17572H5.7441L5.89953 17.0593C6.27535 17.6231 6.81588 18.0475 7.42833 18.261C8.20317 18.5324 9.37473 18.5556 10.196 18.319C10.6228 18.1961 11.1076 17.9316 11.4301 17.6462C11.741 17.3702 11.9846 16.9595 12.0913 16.535C12.1864 16.1568 12.2235 15.8135 12.2375 15.1454L12.2514 14.5213L11.9173 14.8554C11.5206 15.2544 11.2608 15.4446 10.8176 15.6651C10.2563 15.9434 9.75752 16.0803 9.1404 16.1267C7.60928 16.245 6.04104 15.4957 5.20589 14.2499C4.0413 12.517 4.30345 10.153 5.82065 8.6938C6.5027 8.03962 7.39817 7.60578 8.34703 7.47587C8.57901 7.4457 9.34686 7.46426 9.58811 7.50834Z" fill="#FFFCF7"/>
<path d="M8.60052 8.49194C8.31054 8.52444 7.94632 8.61723 7.67026 8.72855C6.60311 9.16472 5.87467 10.0462 5.62876 11.2039C5.55917 11.5334 5.5522 12.2154 5.61717 12.5494C5.74476 13.2013 6.0185 13.721 6.47784 14.1826C7.14132 14.8484 7.99968 15.1547 9.09933 15.1176C9.69322 15.0967 10.1084 15.0062 10.54 14.802C10.8786 14.6396 11.1083 14.4773 11.3867 14.1989C11.8344 13.7511 12.0827 13.2895 12.2242 12.6352C12.2706 12.4288 12.2752 12.3291 12.2775 11.8419C12.2775 11.3431 12.2729 11.2596 12.2242 11.0438C12.071 10.3687 11.8113 9.8839 11.3519 9.4292C10.8786 8.95825 10.3381 8.67289 9.67461 8.53606C9.39396 8.48032 8.89051 8.45951 8.60052 8.49194Z" fill="#FFFCF7"/>
<path d="M16.6534 8.4997C16.2289 8.54381 15.744 8.70153 15.3682 8.91726C14.5075 9.41145 13.9717 10.1886 13.8 11.1908C13.7582 11.4413 13.7512 11.5388 13.7628 11.954C13.7767 12.4783 13.8139 12.7149 13.9438 13.0838C14.1039 13.5339 14.308 13.8563 14.6583 14.2067C15.1316 14.6799 15.6512 14.9444 16.3657 15.0789C16.665 15.1346 17.535 15.1346 17.8319 15.0789C18.1845 15.0116 18.4374 14.9304 18.732 14.7866C19.6298 14.3481 20.2353 13.5524 20.4279 12.5572C20.4928 12.2232 20.4859 11.5411 20.4163 11.2116C20.3165 10.7407 20.1495 10.344 19.8943 9.95894C19.2052 8.92888 17.9456 8.36286 16.6534 8.4997Z" fill="#FFFCF7"/>
<path d="M41.4629 5.62545C40.2496 5.71825 39.1013 6.11727 38.0411 6.81787C36.9601 7.53007 36.1481 8.44876 35.582 9.60176C35.2085 10.3603 35.0113 11.0099 34.8953 11.852C34.8374 12.2719 34.8374 13.3065 34.893 13.7196C35.1737 15.7448 36.1759 17.3942 37.7975 18.5031C38.7835 19.1782 39.8506 19.5842 41.0453 19.7442C41.4675 19.8 42.4372 19.7976 42.8549 19.7419C44.6342 19.5007 46.163 18.7003 47.2533 17.4383L47.4598 17.1993V17.6912C47.4575 19.0553 47.3021 19.8834 46.8845 20.714C46.5597 21.3658 46.1514 21.8182 45.4879 22.2613C44.7687 22.7415 44.0171 23.013 43.0056 23.1545C42.5927 23.2125 41.3609 23.2125 40.9293 23.1545C39.4724 22.9596 38.3798 22.4191 37.5702 21.4935C37.3544 21.2475 37.09 20.8903 36.9601 20.6676L36.8719 20.5168H35.8906H34.9116L34.9487 20.6026C35.0113 20.758 35.2503 21.222 35.3849 21.4587C36.2176 22.9109 37.1224 23.695 38.6419 24.2866C39.7415 24.7134 40.9595 24.9106 42.2401 24.8688C43.9452 24.8132 45.2629 24.4281 46.4275 23.6463C46.8241 23.3795 47.0677 23.1823 47.3786 22.8714C48.0444 22.2103 48.4457 21.5515 48.7659 20.5863C49.0072 19.8649 49.1348 19.1967 49.2253 18.1621C49.2462 17.9463 49.2554 16.1113 49.2623 11.7407L49.2717 5.62313H48.3669H47.4598L47.4552 6.97098L47.4482 8.31884L47.1814 8.02186C46.4228 7.18209 45.5459 6.52556 44.6876 6.15439C43.6807 5.72057 42.5788 5.54193 41.4629 5.62545ZM42.4257 7.22617C43.6482 7.33753 44.8267 7.87341 45.6828 8.70626C46.4994 9.50426 46.9657 10.4415 47.1675 11.6966C47.2557 12.2394 47.2696 13.0282 47.2046 13.5571C47.0631 14.6776 46.6339 15.5731 45.8544 16.3781C45.4114 16.8351 45.0262 17.1182 44.4787 17.3873C43.6157 17.8095 42.5997 17.9951 41.4629 17.9394C40.9943 17.9162 40.6718 17.8698 40.245 17.7654C39.2591 17.5218 38.4772 17.0694 37.7627 16.3271C36.7953 15.3225 36.3244 14.035 36.3777 12.5364C36.4079 11.6943 36.5795 11.0075 36.9507 10.2513C37.4936 9.14706 38.3125 8.33509 39.4446 7.7783C40.1012 7.45584 40.6951 7.29577 41.5209 7.21689C41.7111 7.19833 42.1775 7.20297 42.4257 7.22617Z" fill="#FFFCF7"/>
<path d="M58.8872 5.62767C57.2146 5.75526 55.774 6.40251 54.5862 7.56245C53.9204 8.2143 53.4448 8.85459 53.0597 9.62715C52.0645 11.6153 52.0668 14.1927 53.0621 16.1785C53.5817 17.2132 54.4633 18.2548 55.3611 18.8927C56.5999 19.7743 58.0637 20.1895 59.7688 20.1409C60.2908 20.1246 60.5158 20.1037 60.9473 20.0318C62.7429 19.7256 64.2253 18.7768 65.376 17.1992C66.0812 16.2318 66.5104 15.1577 66.6867 13.9305C66.7447 13.5176 66.7447 12.3043 66.6867 11.889C66.4431 10.163 65.7518 8.79893 64.4967 7.57404C64.0305 7.11471 63.6244 6.80617 63.0862 6.4953C61.9101 5.81557 60.4346 5.51167 58.8872 5.62767ZM60.314 7.42325C61.4345 7.5926 62.4112 8.09835 63.2579 8.9451C64.2833 9.96817 64.8168 11.1467 64.9074 12.5919C64.9746 13.6266 64.7543 14.659 64.2763 15.5776C63.4899 17.0902 62.1328 18.0738 60.4416 18.3638C60.082 18.4265 59.3605 18.4474 58.9778 18.4102C57.9407 18.3058 56.9316 17.8999 56.1498 17.2688C55.3216 16.6007 54.6581 15.5753 54.3565 14.4989C53.9273 12.9701 54.157 11.2557 54.9644 9.97979C55.3912 9.30237 56.0663 8.61106 56.7066 8.19577C56.971 8.02409 57.3932 7.80603 57.674 7.69932C58.0591 7.55084 58.639 7.42325 59.1077 7.37917C59.3188 7.36061 60.0774 7.38845 60.314 7.42325Z" fill="#FFFCF7"/>
<path d="M79.9195 13.4358C79.9195 18.5813 79.91 21.3883 79.8938 21.6088C79.8636 22.0449 79.7989 22.3696 79.7033 22.5483C79.532 22.8707 79.2114 23.0888 78.8335 23.1445C78.4901 23.1955 78.0122 23.1004 77.5784 22.894C77.46 22.8383 77.3578 22.7918 77.3534 22.7918C77.3468 22.7918 77.3468 23.1585 77.349 23.6062L77.3556 24.4204L77.5063 24.4784C77.9563 24.6501 78.6041 24.7963 79.0791 24.8334C79.8592 24.896 80.4482 24.715 80.9121 24.2673C81.346 23.852 81.5915 23.2605 81.6938 22.3789C81.7239 22.1238 81.729 20.9824 81.729 13.8441V5.60156H80.8239H79.9195V13.4358Z" fill="#FFFCF7"/>
<path d="M91.3031 5.62183C90.5215 5.6891 89.7862 5.87238 89.0995 6.16932C87.5473 6.84209 86.1017 8.27347 85.4018 9.83939C84.6378 11.5399 84.5753 13.702 85.2363 15.4975C85.4591 16.103 85.9091 16.8895 86.3385 17.43C86.5753 17.727 87.0576 18.2234 87.3708 18.4948C88.6421 19.5898 90.162 20.1443 91.8921 20.1443C93.9964 20.1419 95.7641 19.3138 97.2604 17.6272L97.4045 17.4648V18.8034V20.1443H98.2978H99.1905V12.8715V5.59863H98.2978H97.4045V7.01839L97.4023 8.44045L97.3398 8.35927C96.9611 7.87678 96.678 7.56357 96.3721 7.28518C95.3442 6.35491 94.231 5.8399 92.8575 5.65662C92.5347 5.61255 91.6399 5.59399 91.3031 5.62183ZM92.8921 7.39422C94.1266 7.57749 95.0773 8.067 95.9567 8.96478C96.7802 9.81153 97.2493 10.7418 97.453 11.9342C97.5155 12.3031 97.539 13.1637 97.4993 13.5698C97.2795 15.7388 95.9707 17.4161 93.9222 18.1562C93.3332 18.3695 92.8854 18.4508 92.2171 18.467C91.359 18.4879 90.723 18.3719 89.9877 18.0564C88.6635 17.488 87.6311 16.4255 87.0488 15.0336C86.726 14.268 86.601 13.5767 86.6238 12.723C86.6539 11.6303 86.9672 10.6606 87.598 9.71638C88.3289 8.6214 89.4473 7.83267 90.7142 7.51021C90.9921 7.44061 91.3568 7.37798 91.6281 7.35246C91.8391 7.3339 92.6671 7.36174 92.8921 7.39422Z" fill="#FFFCF7"/>
<path d="M102.303 12.8715V20.1443H103.205H104.11L104.119 16.5183C104.128 12.7949 104.133 12.6349 104.228 11.7788C104.284 11.28 104.342 10.9877 104.462 10.6235C104.984 9.02279 106.411 7.70044 107.975 7.36406C108.332 7.2875 108.638 7.26199 109.086 7.2759C109.849 7.29678 110.413 7.45222 110.949 7.78164C111.202 7.93936 111.622 8.34766 111.791 8.59824C112.025 8.95316 112.213 9.3847 112.336 9.86028C112.552 10.6908 112.58 11.3891 112.58 16.3675V20.1443H113.473H114.368L114.359 15.7202C114.35 10.9042 114.354 11.0805 114.217 10.1224C114.016 8.73508 113.594 7.81412 112.791 7.01144C112.042 6.26444 111.134 5.81206 110.058 5.65198C109.647 5.59167 108.803 5.59631 108.369 5.66359C107.33 5.82366 106.432 6.21804 105.55 6.89776C105.265 7.11815 104.597 7.78628 104.323 8.12266L104.112 8.38479V6.99288V5.59863H103.207H102.303V12.8715Z" fill="#FFFCF7"/>
<path d="M123.468 5.62183C121.437 5.80278 119.754 6.73305 118.431 8.40567C117.624 9.42646 117.137 10.6374 116.979 12.0131C116.942 12.3402 116.942 13.3517 116.979 13.6834C117.176 15.4164 117.816 16.7782 119.013 18.0077C120.176 19.2001 121.5 19.8752 123.101 20.0909C123.521 20.1466 124.56 20.1466 124.964 20.0909C126.277 19.9077 127.368 19.439 128.386 18.6225C128.648 18.4113 129.216 17.8592 129.448 17.5924L129.578 17.4416L129.581 18.7918V20.1443H130.462H131.343V12.8715V5.59863H130.462H129.581V7.03L129.578 8.46368L129.515 8.38251C129.068 7.80716 128.611 7.32694 128.195 6.99752C127.261 6.25052 126.215 5.80974 125.008 5.65662C124.667 5.61255 123.795 5.59399 123.468 5.62183ZM125.08 7.39653C126.226 7.57053 127.207 8.06237 128.031 8.87662C129.047 9.87881 129.587 11.0967 129.671 12.5652C129.766 14.2425 129.248 15.7249 128.191 16.8129C127.527 17.4926 126.671 18.0007 125.718 18.2745C125.251 18.4067 124.922 18.4554 124.37 18.467C123.423 18.4902 122.739 18.344 121.913 17.9427C121.011 17.5043 120.308 16.8871 119.751 16.0497C119.071 15.0243 118.74 13.8968 118.777 12.7323C118.804 11.8669 118.985 11.1594 119.377 10.3729C119.832 9.46352 120.421 8.78618 121.229 8.2456C121.967 7.75148 122.765 7.46614 123.699 7.36174C123.966 7.33158 124.792 7.35246 125.08 7.39653Z" fill="#FFFCF7"/>
<path d="M69.8496 12.8833V20.1445H70.7775H71.7055V16.9245C71.7055 13.1849 71.731 12.2871 71.8679 11.2199C72.0118 10.111 72.3922 9.13671 72.9606 8.43842C73.2737 8.05328 73.7447 7.70533 74.1878 7.52901C74.717 7.32022 75.195 7.32486 75.7582 7.5499C75.856 7.58701 75.9369 7.61485 75.9391 7.61253C75.9905 7.54293 76.856 6.12549 76.856 6.10925C76.856 6.07213 76.406 5.85638 76.1501 5.77286C75.1207 5.4272 73.9906 5.69166 72.9837 6.51058C72.6265 6.80289 72.1625 7.30863 71.8355 7.76564L71.7055 7.94659V6.78433V5.62207H70.7775H69.8496V12.8833Z" fill="#FFFCF7"/>
</g>
</g>
</g>
<defs>
<clipPath id="clip0_5_6481">
<rect width="130.88" height="25" fill="white" transform="translate(0.980469 0.5)"/>
</clipPath>
<clipPath id="clip1_5_6481">
<rect width="130.88" height="25" fill="white" transform="translate(0.980469 0.5)"/>
</clipPath>
<clipPath id="clip2_5_6481">
<rect width="130.88" height="24.9995" fill="white" transform="translate(0.980469 0.5)"/>
</clipPath>
</defs>
</svg>
