<svg width="29" height="28" viewBox="0 0 29 28" fill="none" xmlns="http://www.w3.org/2000/svg">
<g clip-path="url(#clip0_5_6655)">
<g clip-path="url(#clip1_5_6655)">
<path d="M14.2488 27.2799C21.7213 27.2799 27.7789 21.2223 27.7789 13.7498C27.7789 6.27736 21.7213 0.219727 14.2488 0.219727C6.77638 0.219727 0.71875 6.27736 0.71875 13.7498C0.71875 21.2223 6.77638 27.2799 14.2488 27.2799Z" fill="white" stroke="black" stroke-width="0.439196"/>
<path d="M14.28 8.35171C16.1816 8.35171 16.4065 8.35853 17.1563 8.39261C17.8515 8.42669 18.2264 8.54256 18.4786 8.63798C18.8126 8.76748 19.0443 8.92425 19.2965 9.16962C19.5487 9.42181 19.6986 9.65356 19.8281 9.98754C19.9236 10.2397 20.0394 10.6146 20.0735 11.3098C20.1076 12.0596 20.1144 12.2845 20.1144 14.1862C20.1144 16.0878 20.1076 16.3127 20.0735 17.0625C20.0394 17.7577 19.9236 18.1326 19.8281 18.3848C19.6986 18.7188 19.5419 18.9505 19.2965 19.2027C19.0511 19.4481 18.8126 19.6048 18.4786 19.7343C18.2264 19.8298 17.8515 19.9456 17.1563 19.9797C16.4065 20.0138 16.1816 20.0206 14.28 20.0206C12.3783 20.0206 12.1534 20.0138 11.4036 19.9797C10.7084 19.9456 10.3335 19.8298 10.0813 19.7343C9.74735 19.6048 9.5156 19.4481 9.26341 19.2027C9.01122 18.9505 8.86127 18.7188 8.73177 18.3848C8.63635 18.1326 8.52048 17.7577 8.4864 17.0625C8.45232 16.3127 8.4455 16.0878 8.4455 14.1862C8.4455 12.2845 8.45232 12.0596 8.4864 11.3098C8.52048 10.6146 8.63635 10.2397 8.73177 9.98754C8.86127 9.65356 9.01804 9.42181 9.26341 9.16962C9.5156 8.91743 9.74735 8.76748 10.0813 8.63798C10.3335 8.54256 10.7084 8.42669 11.4036 8.39261C12.1534 8.35853 12.3783 8.35171 14.28 8.35171ZM14.28 7.07031C12.351 7.07031 12.1057 7.07713 11.3491 7.11121C10.5925 7.14529 10.0745 7.26798 9.62466 7.44519C9.15436 7.62922 8.75903 7.86778 8.36371 8.2631C7.96838 8.65843 7.72301 9.05375 7.5458 9.52405C7.36858 9.97391 7.25271 10.4919 7.21863 11.2485C7.18455 12.0051 7.17773 12.2504 7.17773 14.1793C7.17773 16.1083 7.18455 16.3536 7.21863 17.1102C7.25271 17.8668 7.3754 18.3848 7.5458 18.8346C7.72983 19.3049 7.96838 19.7003 8.36371 20.0956C8.75903 20.4909 9.15436 20.7363 9.62466 20.9135C10.0745 21.0907 10.5925 21.2066 11.3491 21.2475C12.1057 21.2816 12.351 21.2884 14.28 21.2884C16.2089 21.2884 16.4542 21.2816 17.2108 21.2475C17.9674 21.2134 18.4854 21.0907 18.9352 20.9135C19.4055 20.7295 19.8009 20.4909 20.1962 20.0956C20.5915 19.7003 20.8369 19.3049 21.0141 18.8346C21.1913 18.3848 21.3072 17.8668 21.3481 17.1102C21.3822 16.3536 21.389 16.1083 21.389 14.1793C21.389 12.2504 21.3822 12.0051 21.3481 11.2485C21.314 10.4919 21.1913 9.97391 21.0141 9.52405C20.8301 9.05375 20.5915 8.65843 20.1962 8.2631C19.8009 7.86778 19.4055 7.6224 18.9352 7.44519C18.4854 7.26798 17.9674 7.1521 17.2108 7.11121C16.4542 7.07713 16.2089 7.07031 14.28 7.07031Z" fill="black"/>
<path d="M14.2803 10.5332C12.2628 10.5332 10.627 12.169 10.627 14.1866C10.627 16.2041 12.2628 17.8399 14.2803 17.8399C16.2978 17.8399 17.9336 16.2041 17.9336 14.1866C17.9336 12.169 16.2978 10.5332 14.2803 10.5332ZM14.2803 16.5585C12.9716 16.5585 11.9084 15.4952 11.9084 14.1866C11.9084 12.8779 12.9716 11.8146 14.2803 11.8146C15.589 11.8146 16.6523 12.8779 16.6523 14.1866C16.6523 15.4952 15.589 16.5585 14.2803 16.5585Z" fill="black"/>
<path d="M18.9345 10.3832C18.9345 10.8535 18.5528 11.2352 18.0825 11.2352C17.6122 11.2352 17.2305 10.8535 17.2305 10.3832C17.2305 9.91294 17.6122 9.53125 18.0825 9.53125C18.5528 9.53125 18.9345 9.91294 18.9345 10.3832Z" fill="black"/>
</g>
</g>
<defs>
<clipPath id="clip0_5_6655">
<rect width="28" height="28" fill="white" transform="translate(0.5)"/>
</clipPath>
<clipPath id="clip1_5_6655">
<rect width="28" height="28" fill="white" transform="translate(0.5)"/>
</clipPath>
</defs>
</svg>
