<svg width="68" height="26" viewBox="0 0 68 26" fill="none" xmlns="http://www.w3.org/2000/svg">
<g clip-path="url(#clip0_5_6473)">
<g clip-path="url(#clip1_5_6473)">
<g clip-path="url(#clip2_5_6473)">
<path d="M34.7852 24.9508C33.6284 24.9508 32.5394 24.9508 31.4121 24.9508C31.4121 19.0757 31.4121 13.2394 31.4121 7.36714C32.9748 7.36714 34.5317 7.36714 36.1255 7.36714C36.1255 7.96526 36.1255 8.55031 36.1255 9.32661C37.8385 7.62079 39.8382 6.97171 42.059 7.07139C44.2928 7.17167 46.2373 7.92898 47.4601 9.81821C48.3411 9.18989 49.1549 8.47884 50.082 7.97728C51.6681 7.11933 53.3815 6.92648 55.1917 7.16582C56.7033 7.36569 58.0196 7.85127 59.1153 8.91526C60.2119 9.98008 60.9268 11.3287 60.9704 12.7887C61.0907 16.8197 61.012 20.8565 61.012 24.921C59.461 24.921 57.829 24.921 56.0955 24.921C56.0955 24.6989 56.0955 24.4606 56.0955 24.2221C56.0955 21.1037 56.1275 17.9848 56.0813 14.8669C56.0596 13.399 55.3007 11.9019 53.6752 11.5357C51.7872 11.1103 49.824 11.7547 49.1507 13.8073C48.892 14.5961 48.7529 15.4566 48.7387 16.2874C48.6897 19.1503 48.7199 22.0145 48.7199 24.9145C47.0285 24.9145 45.3806 24.9145 43.6662 24.9145C43.6662 24.2041 43.6662 23.5053 43.6662 22.8065C43.6662 20.1661 43.7461 17.5224 43.64 14.8862C43.5599 12.8967 42.8031 11.8445 41.1485 11.4981C39.0332 11.0553 37.1957 11.9271 36.5853 14.2284C36.3704 15.0381 36.3138 15.907 36.3031 16.7503C36.2691 19.4557 36.2905 22.1619 36.2905 24.9508C35.7919 24.9508 35.3226 24.9508 34.7852 24.9508Z" fill="#FFFCF7"/>
<path d="M17.2646 7.42589C19.4911 6.86654 21.6504 6.92731 23.7574 7.70178C27.1566 8.95121 29.1368 11.3312 29.621 14.9805C29.8679 16.8414 29.5874 18.5774 28.7888 20.2226C27.4971 22.8833 25.271 24.33 22.4263 24.9616C19.9608 25.509 17.5674 25.2641 15.3213 24.2086C12.9439 23.0913 11.315 21.2054 10.666 18.6201C9.82558 15.2718 10.5047 12.2452 12.941 9.74441C14.1006 8.55406 15.5577 7.78376 17.2646 7.42589ZM18.2797 20.8031C18.5962 20.8924 18.9088 21.0003 19.23 21.0677C20.5634 21.3477 22.5072 20.8006 23.4768 19.5667C24.5392 18.2152 24.8222 16.7013 24.534 15.0625C24.3532 14.0347 23.9468 13.106 23.1389 12.3707C21.8949 11.2385 20.4551 10.9355 18.8661 11.3062C17.9963 11.5091 17.1885 11.92 16.634 12.6465C15.638 13.9517 15.2175 15.4089 15.5206 17.0698C15.8256 18.7415 16.55 20.0628 18.2797 20.8031Z" fill="#FFFCF7"/>
<path d="M7.89562 25.3604C4.4371 25.2511 1.22716 22.8982 0.644321 19.407C0.574791 18.9906 0.512791 18.5665 0.512132 18.1458C0.503422 12.5736 0.506323 7.00137 0.506323 1.42918C0.506323 1.185 0.506323 0.940815 0.506323 0.667969C2.14846 0.667969 3.73388 0.667969 5.42342 0.667969C5.42342 0.887446 5.42342 1.12529 5.42342 1.36314C5.42342 6.75339 5.49333 12.145 5.38901 17.5332C5.34727 19.6896 7.2944 20.7987 9.11241 20.3638C9.48615 20.2745 9.6676 20.3276 9.84979 20.6815C10.4954 21.9355 11.2652 23.1022 12.3858 23.9993C12.6224 24.1888 12.589 24.3139 12.2242 24.4873C11.1568 24.995 10.056 25.3865 8.84854 25.3614C8.55301 25.3551 8.25723 25.3604 7.89562 25.3604Z" fill="#FFFCF7"/>
<path d="M67.8429 23.3099C67.8429 23.8752 67.8429 24.3725 67.8429 24.9101C66.1616 24.9101 64.5146 24.9101 62.8281 24.9101C62.8281 19.0793 62.8281 13.2461 62.8281 7.37207C64.4707 7.37207 66.1179 7.37207 67.8429 7.37207C67.8429 12.6606 67.8429 17.9514 67.8429 23.3099Z" fill="#FFFCF7"/>
<path d="M67.8224 3.69115C67.6432 4.7493 66.8597 5.45348 65.7895 5.54047C64.3197 5.65994 63.5331 5.19643 63.0457 4.13233C62.5721 3.09892 62.852 2.08974 63.4494 1.42126C64.103 0.689795 65.3695 0.387647 66.2095 0.716073C67.2289 1.1146 67.8411 2.00437 67.8419 3.08964C67.842 3.27143 67.8617 3.45942 67.8224 3.69115Z" fill="#FFFCF7"/>
</g>
</g>
</g>
<defs>
<clipPath id="clip0_5_6473">
<rect width="67.61" height="25" fill="white" transform="translate(0.369141 0.5)"/>
</clipPath>
<clipPath id="clip1_5_6473">
<rect width="67.61" height="25" fill="white" transform="translate(0.369141 0.5)"/>
</clipPath>
<clipPath id="clip2_5_6473">
<rect width="67.61" height="24.9952" fill="white" transform="translate(0.369141 0.501953)"/>
</clipPath>
</defs>
</svg>
