<svg width="75" height="30" viewBox="0 0 75 30" fill="none" xmlns="http://www.w3.org/2000/svg">
<g clip-path="url(#clip0_5_6523)">
<g clip-path="url(#clip1_5_6523)">
<g clip-path="url(#clip2_5_6523)">
<path d="M69.7233 29.9996C69.3581 29.9996 68.9925 29.9996 68.6019 29.9847C67.0645 29.8278 65.8798 29.0976 64.9583 27.9666C64.6349 28.2576 64.3298 28.563 63.9935 28.8289C63.1873 29.4662 62.2432 29.7488 61.2315 29.7967C60.8101 29.8167 60.3804 29.7803 59.9609 29.7208C59.0203 29.5875 58.2141 29.1596 57.52 28.5171C57.1509 28.1753 56.8399 27.7848 56.5868 27.3498C56.1579 26.6121 55.9275 25.812 55.858 24.9647C55.824 24.5478 55.8021 24.1297 55.7794 23.7119C55.7505 23.1707 55.7279 22.6291 55.7002 22.0879C55.6763 21.6246 55.6447 21.1616 55.6236 20.6982C55.5939 20.0528 55.5713 19.4071 55.5435 18.7617C55.5384 18.6475 55.5216 18.5337 55.5103 18.4197C55.0072 19.3567 54.5483 20.2998 54.0854 21.2409C53.5401 22.3487 52.9936 23.4558 52.4441 24.5614C52.0757 25.3028 51.7054 26.0433 51.3277 26.78C50.9621 27.4932 50.4824 28.1146 49.8649 28.635C49.0489 29.3225 48.1099 29.7086 47.0584 29.7958C46.4693 29.8447 45.8721 29.8269 45.2889 29.6862C44.4983 29.4955 43.7761 29.1751 43.1441 28.6457C42.5515 28.1497 42.0789 27.5621 41.7649 26.8674C41.5184 26.3223 41.345 25.7426 41.1633 25.1705C40.9676 24.5557 40.8024 23.9314 40.6196 23.3124C40.536 23.0297 40.4431 22.7498 40.3423 22.4304C39.9767 23.5516 39.4681 24.5528 38.8221 25.4834C38.2389 26.3237 37.5531 27.0758 36.7705 27.7316C35.9922 28.3838 35.1364 28.9191 34.1926 29.3072C33.4371 29.6179 32.6593 29.8367 31.8453 29.9229C31.6845 29.94 31.5255 29.9736 31.3657 29.9996C30.8831 29.9996 30.4006 29.9996 29.8923 29.9845C29.4621 29.9146 29.0546 29.8763 28.6537 29.8021C27.4688 29.5828 26.3933 29.1077 25.4304 28.3809C25.2959 28.2794 25.1724 28.2228 24.9791 28.27C24.665 28.3467 24.3352 28.3901 24.0118 28.3913C23.4171 28.3936 22.8326 28.309 22.258 28.1315C21.5462 27.9117 20.9015 27.5797 20.37 27.0607C20.0196 26.7187 19.7123 26.3326 19.3776 25.957C19.2432 26.1137 19.0973 26.3089 18.9264 26.4788C18.4372 26.9653 17.9644 27.4735 17.4356 27.9134C16.8352 28.4128 16.1619 28.8179 15.4339 29.1135C14.9645 29.3041 14.4921 29.4987 14.0044 29.6296C13.4972 29.7658 12.97 29.828 12.4513 29.9216C12.2984 29.9492 12.1449 29.9737 11.9916 29.9996C11.3658 29.9996 10.7401 29.9996 10.0886 29.9845C9.6328 29.9121 9.19595 29.8848 8.77386 29.7911C7.86862 29.5902 7.00218 29.2799 6.18101 28.8352C5.3778 28.4002 4.6528 27.8643 3.99039 27.244C3.65956 26.9342 3.36439 26.5852 3.06378 26.2446C2.58175 25.6983 2.18426 25.0916 1.83748 24.4528C1.46132 23.76 1.16389 23.0331 0.940158 22.2765C0.686479 21.4188 0.519349 20.54 0.480748 19.6508C0.446345 18.8582 0.430444 18.0609 0.539498 17.2656C0.633023 16.5835 0.768201 15.9141 0.968762 15.2575C1.22368 14.4228 1.58549 13.6358 2.03038 12.8848C2.49486 12.1006 3.04657 11.3832 3.67485 10.7265C3.95052 10.4383 4.26023 10.1824 4.55788 9.91567C5.10203 9.42804 5.71404 9.03427 6.36784 8.71983C6.90211 8.46289 7.46028 8.2454 8.0253 8.06486C8.81659 7.81206 9.63522 7.67566 10.469 7.65812C10.8278 7.65054 11.1877 7.6416 11.5456 7.66074C11.9805 7.68398 12.4201 7.70277 12.8466 7.78249C13.9299 7.98494 14.9657 8.33172 15.9302 8.8797C16.7122 9.32398 17.4228 9.8622 18.0705 10.4811C18.3824 10.779 18.6627 11.1106 18.9502 11.4333C19.5681 12.1268 20.0611 12.9041 20.475 13.7333C20.5335 13.8507 20.5887 13.9698 20.6475 14.0925C20.6716 14.0706 20.6879 14.0633 20.69 14.053C20.816 13.4504 20.9333 12.8458 21.068 12.2453C21.1839 11.7281 21.325 11.2167 21.4454 10.7005C21.7102 9.56526 21.9681 8.42836 22.2308 7.29259C22.462 6.29279 22.6941 5.29319 22.9291 4.29425C23.2145 3.08076 23.7539 2.01658 24.7207 1.19211C25.221 0.765382 25.7653 0.426703 26.3953 0.236622C26.6945 0.146363 27.0005 0.078814 27.3034 0.000976563C27.7209 0.000976485 28.1383 0.000976481 28.5807 0.0156088C28.6639 0.0340078 28.7237 0.0302502 28.78 0.042702C29.3568 0.170355 29.9196 0.330932 30.4462 0.614448C31.3224 1.08621 31.992 1.7568 32.4603 2.62992C32.7942 3.25272 32.9871 3.914 33.0551 4.62326C33.1036 5.13007 33.0842 5.6263 32.9899 6.11854C32.8828 6.67758 32.7395 7.2297 32.6052 7.81456C34.7248 8.09064 36.5724 8.93048 38.1071 10.4242C38.1291 10.3792 38.1465 10.3452 38.1626 10.3105C38.6376 9.28641 39.3855 8.51953 40.3872 8.0126C41.3114 7.54504 42.2914 7.34837 43.3335 7.4554C43.8374 7.50711 44.3265 7.59719 44.7987 7.77601C45.6498 8.0983 46.3221 8.65171 46.8584 9.37972C47.2369 9.89341 47.4857 10.469 47.6697 11.0885C48.0302 10.3957 48.4521 9.77439 49.0524 9.27871C49.8731 8.60155 50.8215 8.29141 51.8644 8.24911C52.2152 8.23485 52.5694 8.28895 52.9214 8.3218C53.5096 8.37672 54.0612 8.56023 54.5869 8.82443C54.7748 8.91877 54.956 9.0256 55.1732 9.14465C55.1451 9.06977 55.133 9.02864 55.115 8.99025C54.8564 8.43855 54.6959 7.85475 54.6533 7.25201C54.6006 6.50028 54.6748 5.76075 54.951 5.04187C55.4373 3.77696 56.2755 2.82111 57.436 2.15079C58.5418 1.51219 59.7394 1.35969 60.9929 1.56103C61.9702 1.71803 62.8135 2.15457 63.5482 2.79737C64.1306 3.30687 64.6052 3.90373 64.9263 4.62236C65.3435 5.55494 65.4763 6.52485 65.3411 7.52531C65.2314 8.33719 64.965 9.10255 64.4955 9.78744C64.4642 9.83286 64.472 9.93321 64.5009 9.98676C64.6244 10.2153 64.7771 10.4286 64.8931 10.6607C65.2868 11.4505 65.4118 12.3046 65.4653 13.1733C65.4934 13.6298 65.5184 14.0865 65.5434 14.5432C65.5833 15.2769 65.6216 16.0108 65.661 16.7445C65.6864 17.2077 65.7161 17.6707 65.7384 18.134C65.7673 18.7467 65.7891 19.3598 65.8184 19.9725C65.8278 20.1618 65.852 20.3504 65.87 20.5471C65.9001 20.5373 65.9204 20.536 65.9333 20.5255C66.7125 19.8936 67.6172 19.5537 68.6027 19.4631C69.1839 19.4097 69.7737 19.433 70.353 19.5678C71.201 19.7649 71.9533 20.1516 72.6021 20.7203C73.0658 21.1267 73.4653 21.5918 73.7712 22.1419C74.127 22.7819 74.3415 23.4601 74.4016 24.1795C74.4376 24.6086 74.4258 25.0515 74.3606 25.4767C74.2911 25.9296 74.1778 26.3872 74.0048 26.8104C73.6751 27.6162 73.1454 28.2863 72.4677 28.8415C71.8818 29.3215 71.2225 29.6474 70.4956 29.8411C70.2421 29.9087 69.9811 29.9476 69.7233 29.9996ZM21.3677 21.0786C21.28 21.458 21.1989 21.839 21.1031 22.2164C20.9758 22.7183 20.8999 23.2224 20.9843 23.7397C21.3198 25.7974 23.2969 26.4322 24.6826 26.0321C25.0404 25.9287 25.3641 25.7072 25.7146 25.5344C26.1015 26.0614 26.5996 26.5357 27.205 26.8831C28.9377 27.8774 30.7774 28.0161 32.6667 27.4688C34.4699 26.9464 35.8304 25.7901 36.9134 24.2933C38.2172 22.4914 38.7374 20.4399 38.7773 18.245C38.7958 17.2287 38.6398 16.2405 38.3034 15.2792C38.1557 14.8572 38.0721 14.4093 37.8934 14.0022C37.5182 13.1477 36.9746 12.4018 36.2682 11.7869C34.6354 10.3657 32.7352 9.8122 30.5934 10.0697C30.3206 10.1025 30.0511 10.1623 29.7794 10.2098C29.777 10.1867 29.7722 10.1732 29.7749 10.1615C30.0513 8.94611 30.3318 7.73167 30.6035 6.51524C30.7247 5.97273 30.8891 5.44065 30.833 4.86598C30.7124 3.63066 29.9984 2.71484 28.819 2.3583C27.901 2.08078 27.0414 2.19572 26.2802 2.80483C25.656 3.30425 25.299 3.97177 25.1219 4.74228C24.623 6.91249 24.1253 9.08294 23.6264 11.2531C22.876 14.5177 22.125 17.7821 21.3677 21.0786ZM6.59591 26.4706C7.01093 26.6986 7.41138 26.9599 7.84359 27.1484C9.24352 27.7588 10.7109 27.8896 12.2169 27.7038C13.866 27.5003 15.3295 26.874 16.5417 25.735C17.7726 24.5783 18.7015 23.2294 19.0102 21.5208C19.1128 20.9528 19.2952 20.3973 19.3704 19.8268C19.4743 19.0379 19.4184 18.2438 19.3027 17.4553C18.9346 14.9474 17.7021 12.942 15.7076 11.4166C13.7233 9.89899 11.4697 9.56944 9.07095 10.1032C7.54196 10.4435 6.26417 11.2348 5.19969 12.3802C4.33496 13.3107 3.6665 14.3614 3.23329 15.5571C2.61234 17.271 2.53604 19.0262 2.88911 20.8006C3.36102 23.1724 4.59753 25.0568 6.59591 26.4706ZM46.6209 16.5614C46.4978 16.0167 46.3752 15.4718 46.251 14.9274C46.0049 13.8512 45.7748 12.771 45.5061 11.7005C45.3002 10.8821 44.8518 10.2296 44.0425 9.88962C43.541 9.67889 43.0132 9.6185 42.475 9.68908C41.5192 9.8145 40.7411 10.2351 40.2743 11.1092C39.9333 11.7477 39.879 12.4466 40.0216 13.1413C40.1567 13.8012 40.3532 14.4494 40.5419 15.0974C41.3907 18.0155 42.2434 20.9325 43.1011 23.8479C43.2878 24.4827 43.4597 25.127 43.7113 25.7369C44.5968 27.8842 47.0978 27.9333 48.2692 27.0457C48.7809 26.6579 49.1434 26.1599 49.4235 25.5949C50.4766 23.4704 51.5257 21.344 52.5753 19.2178C53.2975 17.7551 54.0237 16.2944 54.735 14.8265C55.017 14.2453 55.1478 13.6267 55.0842 12.9738C54.9947 12.0533 54.517 11.3813 53.7436 10.9176C53.0272 10.4878 52.2363 10.3919 51.4281 10.5547C50.5043 10.7408 49.9723 11.3861 49.636 12.217C48.9024 14.0286 48.1755 15.8429 47.4486 17.6573C47.3248 17.9671 47.215 18.2826 47.0892 18.6206C46.9314 17.9231 46.781 17.2579 46.6209 16.5614ZM63.7474 22.9868C63.7103 22.3054 63.6717 21.6241 63.6357 20.9427C63.5908 20.0923 63.5506 19.2417 63.5033 18.3915C63.4322 17.1067 63.358 15.8221 63.2834 14.5375C63.2463 13.8954 63.2381 13.2495 63.1596 12.6123C62.9791 11.1486 61.7846 9.9222 60.1144 10.0699C58.6121 10.2027 57.4801 11.3912 57.4989 12.8984C57.5126 13.9701 57.5934 15.0409 57.6462 16.1121C57.7114 17.4299 57.7778 18.7478 57.8454 20.0655C57.9098 21.3248 57.9735 22.5842 58.045 23.8431C58.0711 24.3095 58.07 24.7847 58.1641 25.2388C58.666 27.6586 61.096 28.0937 62.6018 27.0705C63.4158 26.5176 63.7861 25.6857 63.8162 24.7189C63.8334 24.1552 63.7756 23.5893 63.7474 22.9868ZM60.4191 3.73626C60.3742 3.72955 60.3292 3.71908 60.2843 3.71668C59.2117 3.65971 58.325 4.0429 57.627 4.85493C57.1501 5.40979 56.8685 6.04585 56.8731 6.79062C56.8778 7.55582 57.145 8.22255 57.6262 8.81143C58.8137 10.2646 60.6331 10.2425 61.7557 9.44413C62.7682 8.7244 63.2346 7.71874 63.1303 6.46099C63.0205 5.13332 61.7694 3.85439 60.4191 3.73626ZM66.5571 26.3468C67.1063 27.1261 67.8211 27.6224 68.7917 27.7527C70.4877 27.9804 72.0916 26.6333 72.1939 24.9063C72.3092 22.9596 70.5549 21.3215 68.5179 21.7354C66.5676 22.1317 65.4013 24.4083 66.5571 26.3468Z" fill="#FFFCF7"/>
<path d="M70.5042 5.19174C70.5031 5.16952 70.5023 5.16307 70.5015 5.15659C70.4894 5.16682 70.4702 5.17467 70.4656 5.18768C70.3269 5.56594 70.1898 5.94471 70.0523 6.32298C69.957 6.32298 69.8668 6.32298 69.7652 6.32298C69.63 5.95241 69.4953 5.58293 69.3609 5.21346C69.3496 5.21651 69.3383 5.21959 69.3269 5.22268C69.3269 5.58508 69.3269 5.94749 69.3269 6.31915C69.2152 6.31915 69.1133 6.31915 68.9961 6.31915C68.9961 5.74945 68.9961 5.17459 68.9961 4.57169C69.1203 4.57169 69.2555 4.55853 69.3859 4.57822C69.4379 4.58599 69.5004 4.65891 69.5203 4.71555C69.6504 5.07807 69.7695 5.44431 69.9082 5.8564C69.9691 5.69875 70.0191 5.57883 70.0621 5.45646C70.1207 5.28939 70.1749 5.12073 70.2296 4.95226C70.3613 4.54634 70.3613 4.54622 70.8046 4.58271C70.8046 5.15655 70.8046 5.73156 70.8046 6.31763C70.7105 6.31763 70.6171 6.31763 70.5042 6.31763C70.5042 5.94514 70.5042 5.57629 70.5042 5.19174Z" fill="#FFFCF7"/>
<path d="M68.6234 4.57129C68.6988 4.57422 68.7554 4.57719 68.8175 4.58039C68.8175 4.66812 68.8175 4.74417 68.8175 4.83854C68.6441 4.83854 68.4718 4.83854 68.282 4.83854C68.282 5.34 68.282 5.82373 68.282 6.31808C68.1578 6.31808 68.0515 6.31808 67.9269 6.31808C67.9269 5.83037 67.9269 5.34657 67.9269 4.8446C67.7379 4.8446 67.5656 4.8446 67.3867 4.8446C67.3867 4.75007 67.3867 4.67402 67.3867 4.57129C67.791 4.57129 68.1976 4.57129 68.6234 4.57129Z" fill="#FFFCF7"/>
<path d="M27.9334 20.3851C27.7004 19.3971 27.8121 18.4471 28.1159 17.51C28.3431 16.8095 28.7067 16.1959 29.2785 15.7195C30.4381 14.7534 32.4556 15.178 32.8777 16.8496C33.3352 18.6615 32.9708 20.2971 31.6353 21.648C30.9115 22.3803 29.7204 22.472 28.9087 21.9072C28.3813 21.5403 28.1 21.0066 27.9334 20.3851Z" fill="#FFFCF7"/>
<path d="M12.8085 21.6379C11.7918 22.7446 10.1107 22.6106 9.22358 21.3691C8.7279 20.6755 8.49838 19.8942 8.44292 19.0556C8.3839 18.1638 8.51733 17.3129 8.94485 16.5094C9.77782 14.9438 11.9716 14.7994 12.9578 16.4011C13.5546 17.3703 13.7383 18.4252 13.644 19.5414C13.5866 20.2206 13.3818 20.851 12.9849 21.4118C12.9324 21.486 12.8729 21.5551 12.8085 21.6379Z" fill="#FFFCF7"/>
</g>
</g>
</g>
<defs>
<clipPath id="clip0_5_6523">
<rect width="74.02" height="30" fill="white" transform="translate(0.429688)"/>
</clipPath>
<clipPath id="clip1_5_6523">
<rect width="74.02" height="30" fill="white" transform="translate(0.429688)"/>
</clipPath>
<clipPath id="clip2_5_6523">
<rect width="74.02" height="29.9986" fill="white" transform="translate(0.429688 0.000976562)"/>
</clipPath>
</defs>
</svg>
