<svg width="217" height="18" viewBox="0 0 217 18" fill="none" xmlns="http://www.w3.org/2000/svg">
<g clip-path="url(#clip0_5_6505)">
<g clip-path="url(#clip1_5_6505)">
<mask id="mask0_5_6505" style="mask-type:luminance" maskUnits="userSpaceOnUse" x="0" y="0" width="217" height="18">
<path d="M216.43 0H0.429688V18H216.43V0Z" fill="white"/>
</mask>
<g mask="url(#mask0_5_6505)">
<path d="M109.065 11.647C108.959 11.647 108.854 11.7529 108.854 11.647H104.724V9.31762H107.689C107.795 9.31762 107.901 9.31762 107.901 9.31762C108.007 9.31762 108.007 9.42353 108.113 9.42353V8.47054C108.113 8.57645 108.007 8.57645 107.901 8.68236C107.795 8.68236 107.689 8.7882 107.689 8.7882H104.724V6.24704H108.642C108.748 6.24704 108.854 6.24704 108.854 6.24704C108.854 6.24704 108.959 6.35293 109.065 6.4588H109.171L109.065 5.50586H103.877C103.984 5.50586 103.984 5.61174 104.089 5.71763C104.089 5.82351 104.195 5.92939 104.195 5.92939V11.8588C104.195 11.9647 104.195 12.0705 104.089 12.0705C104.089 12.1765 103.984 12.1765 103.877 12.2824H109.384L109.489 11.3294C109.171 11.5411 109.065 11.647 109.065 11.647Z" fill="#FFFCF7"/>
<path d="M110.653 5.61174L110.547 6.56468H110.653C110.653 6.4588 110.759 6.4588 110.864 6.35293C110.97 6.35293 111.076 6.24704 111.076 6.35293H113.406V12.0705C113.406 12.1765 113.406 12.2824 113.3 12.2824C113.3 12.3882 113.194 12.3882 113.088 12.4941H114.359C114.253 12.4941 114.253 12.3882 114.147 12.2824C114.147 12.1765 114.041 12.0705 114.041 12.0705V6.24704H116.37C116.476 6.24704 116.583 6.24704 116.583 6.24704C116.688 6.24704 116.688 6.35293 116.794 6.4588L116.688 5.50586H110.653V5.61174Z" fill="#FFFCF7"/>
<path d="M16.5235 0.741623C16.947 0.953389 17.0529 1.37692 16.8411 1.80045L10.8058 15.5651L4.77052 1.80045C4.55875 1.37692 4.66464 1.05927 5.08817 0.741623V0.635742H2.01758V0.741623C2.33523 0.847506 2.54699 1.27104 2.86464 1.80045L9.32347 16.4122C9.53522 16.9416 9.42931 17.2593 9.00581 17.4711V17.5769H12.5V17.4711C12.1823 17.2593 12.0764 16.9416 12.1823 16.4122L18.6411 1.80045C18.8529 1.27104 19.1705 0.953389 19.4881 0.741623V0.635742L16.5235 0.741623Z" fill="#FFFCF7"/>
<path d="M35.0535 15.6711H24.8888V8.6828H33.0417C33.2535 8.6828 33.4652 8.6828 33.6771 8.78872C33.8888 8.89456 33.9947 9.00047 34.1006 9.21222H34.2064V6.45927H34.1006C33.9947 6.67104 33.7829 6.77692 33.6771 6.8828C33.4652 6.98868 33.2535 6.98868 33.0417 6.98868H24.8888V2.32986H34.4182C34.9477 2.32986 35.2652 2.54162 35.4771 2.85927H35.5829L35.2652 0.635742H22.3477V0.741622C22.5594 0.847506 22.6652 0.953389 22.7712 1.16516C22.8771 1.37692 22.8771 1.58868 22.8771 1.80045V16.3063C22.8771 16.5181 22.8771 16.7299 22.7712 16.9416C22.6652 17.1534 22.5594 17.2593 22.3477 17.3651V17.4711H35.7947L36.1123 15.2475H36.0064C35.9006 15.4593 35.5829 15.6711 35.0535 15.6711Z" fill="#FFFCF7"/>
<path d="M53.265 0.741622C53.4767 0.847506 53.5827 0.953389 53.6886 1.16516C53.7944 1.37692 53.7944 1.58868 53.7944 1.80045V12.7063C53.4767 12.1769 52.9473 11.5416 51.9944 10.8005C51.1473 10.0593 50.0886 9.31806 49.0297 8.57689C47.9709 7.83572 46.9121 7.09456 45.9592 6.24751C43.9473 4.65927 42.3592 2.96516 42.3592 1.69456C42.3592 1.4828 42.3592 1.27104 42.465 1.05927C42.5709 0.847506 42.6767 0.741623 42.8886 0.635742H39.9238V0.741622C40.1356 0.847506 40.2415 0.953389 40.3473 1.16516C40.4532 1.37692 40.4532 1.58868 40.4532 1.80045V16.3063C40.4532 16.5181 40.4532 16.7299 40.3473 16.9416C40.2415 17.1534 40.1356 17.2593 39.9238 17.3651V17.4711H42.8886V17.3651C42.6767 17.2593 42.5709 17.1534 42.465 16.9416C42.3592 16.7299 42.3592 16.5181 42.3592 16.3063V5.08281C42.6767 5.61221 43.2062 6.24751 44.0532 6.98868C44.9003 7.72988 45.9592 8.47105 47.0179 9.21222C48.0767 9.95339 49.1356 10.6946 50.1944 11.5416C52.2062 13.1299 53.7944 14.824 53.7944 16.2005C53.7944 16.4122 53.7944 16.624 53.6886 16.8357C53.5827 17.0475 53.4767 17.1534 53.265 17.2593V17.3651H56.2297V17.2593C56.0179 17.1534 55.9121 17.0475 55.8062 16.8357C55.7003 16.624 55.7003 16.4122 55.7003 16.2005V1.69456C55.7003 1.4828 55.7003 1.27104 55.8062 1.05927C55.9121 0.847506 56.0179 0.741623 56.2297 0.635742L53.265 0.741622Z" fill="#FFFCF7"/>
<path d="M81.5347 4.12941C81.5347 2.54118 83.2289 1.69412 85.6639 1.69412C86.9347 1.69412 88.2055 1.90588 89.2639 2.43529C90.4289 2.96471 91.3822 3.49412 92.0172 4.23529H92.1231V1.37647H92.0172C92.0172 1.48235 91.9114 1.48235 91.8055 1.58823C91.6997 1.58823 91.5939 1.69412 91.5939 1.58823C91.1698 1.58823 88.6289 0 85.6639 0C83.8639 0 82.488 0.423529 81.3231 1.16471C80.2639 1.90588 79.6289 2.96471 79.6289 4.23529C79.6289 9.95292 91.488 8.04708 91.488 12.8118C91.488 13.7647 90.9581 14.6118 90.0055 15.3529C89.0523 15.9882 87.6756 16.3059 86.088 16.3059C84.1822 16.3059 82.8055 15.9882 81.6406 15.3529C80.4756 14.7177 79.6289 13.0235 79.6289 13.0235V16.8353C79.7347 16.7294 79.9464 16.6235 80.0523 16.6235C80.2639 16.6235 80.3698 16.6235 80.5822 16.7294C81.9581 17.5765 83.6523 18 85.9822 18C88.2055 18 89.8997 17.4706 91.2756 16.5177C92.6523 15.5647 93.288 14.2941 93.288 12.7059C93.3939 6.56471 81.5347 8.15292 81.5347 4.12941Z" fill="#FFFCF7"/>
<path d="M73.0647 0.741622C73.2771 0.847506 73.3829 0.953389 73.4888 1.16516C73.5946 1.37692 73.5946 1.58868 73.5946 1.80045V11.1181C73.5946 14.5063 71.3708 16.3063 67.9826 16.3063C64.5944 16.3063 62.3708 14.4005 62.3708 11.1181V1.69456C62.3708 1.4828 62.3708 1.27104 62.4767 1.05927C62.5826 0.847506 62.6885 0.741623 62.9002 0.635742H59.9355V0.741622C60.1473 0.847506 60.2532 0.953389 60.359 1.16516C60.465 1.37692 60.465 1.58868 60.465 1.80045V11.0122C60.465 13.2357 61.1002 14.9299 62.4767 16.2005C63.8532 17.4711 65.6532 18.1063 67.8767 18.1063C70.1002 18.1063 71.9002 17.4711 73.2771 16.2005C74.653 14.9299 75.2888 13.2357 75.2888 11.0122V1.69456C75.2888 1.4828 75.2887 1.27104 75.3946 1.05927C75.5004 0.847506 75.6063 0.741623 75.818 0.635742L73.0647 0.741622Z" fill="#FFFCF7"/>
<path d="M214.1 17.2587C213.888 17.1528 213.676 16.9411 213.464 16.7293C213.252 16.4117 212.935 16.094 212.723 15.7763C211.77 14.5058 210.606 12.8117 210.288 12.3881C209.864 11.7528 209.229 11.2234 208.594 10.7999C211.452 10.2705 213.358 8.36459 213.358 5.71753C213.358 4.1293 212.829 2.85871 211.558 2.01165C210.394 1.05871 208.911 0.529297 207.005 0.529297H198.111V0.635179C198.323 0.741062 198.429 0.846945 198.535 1.05871C198.641 1.27047 198.641 1.48224 198.641 1.694V16.1999C198.641 16.4117 198.641 16.6234 198.535 16.8352C198.429 17.0469 198.323 17.1528 198.111 17.2587V17.3646H201.076V17.2587C200.864 17.1528 200.758 17.0469 200.652 16.8352C200.546 16.6234 200.546 16.4117 200.546 16.1999V11.1175H204.994C207.323 11.1175 208.7 13.4469 210.076 15.3528C210.288 15.5646 210.5 15.9881 210.817 16.4117C210.923 16.5175 211.029 16.7293 211.029 16.8352C211.029 17.0469 211.029 17.1528 211.029 17.3646L214.1 17.2587ZM207.005 9.52933H200.652V2.3293H207.005C209.758 2.3293 211.452 3.59989 211.452 5.82341C211.452 8.15284 209.652 9.52933 207.005 9.52933Z" fill="#FFFCF7"/>
<path d="M191.229 0.741622C191.44 0.847506 191.546 0.953389 191.652 1.16516C191.758 1.37692 191.758 1.58868 191.758 1.80045V11.1181C191.758 14.5063 189.535 16.3063 186.146 16.3063C182.758 16.3063 180.535 14.4005 180.535 11.1181V1.69456C180.535 1.4828 180.535 1.27104 180.64 1.05927C180.746 0.847506 180.852 0.741623 181.064 0.635742H178.1V0.741622C178.311 0.847506 178.417 0.953389 178.523 1.16516C178.629 1.37692 178.629 1.58868 178.629 1.80045V11.0122C178.629 13.2357 179.264 14.9299 180.64 16.2005C182.017 17.4711 183.817 18.1063 186.04 18.1063C188.264 18.1063 190.064 17.4711 191.44 16.2005C192.817 14.9299 193.452 13.2357 193.452 11.0122V1.69456C193.452 1.4828 193.452 1.27104 193.558 1.05927C193.664 0.847506 193.77 0.741623 193.982 0.635742L191.229 0.741622Z" fill="#FFFCF7"/>
<path d="M127.383 0.635742C127.594 0.847506 127.7 0.953389 127.806 1.16516C127.912 1.37692 127.912 1.58868 127.912 1.80045V16.3063C127.912 16.5181 127.912 16.7299 127.806 16.9416C127.7 17.1534 127.594 17.2593 127.383 17.3651V17.4711H130.347V17.3651C130.135 17.2593 130.03 17.1534 129.924 16.9416C129.818 16.7299 129.818 16.5181 129.818 16.3063V8.6828H137.97C138.183 8.6828 138.394 8.6828 138.606 8.78872C138.818 8.89456 138.924 9.00047 139.03 9.21222H139.135V6.45927H139.03C138.924 6.67104 138.712 6.77692 138.606 6.8828C138.394 6.98868 138.183 6.98868 137.97 6.98868H129.818V2.32986H139.347C139.876 2.32986 140.194 2.54162 140.406 2.85927H140.512L140.194 0.635742H127.383Z" fill="#FFFCF7"/>
<path d="M155.971 15.6711H146.865V1.69456C146.865 1.4828 146.865 1.27104 146.971 1.05927C147.076 0.847506 147.183 0.741623 147.395 0.635742H144.43V0.741622C144.641 0.847506 144.747 0.953389 144.853 1.16516C144.959 1.37692 144.959 1.58868 144.959 1.80045V16.3063C144.959 16.5181 144.959 16.7299 144.853 16.9416C144.747 17.1534 144.641 17.2593 144.43 17.3651V17.4711H156.818L157.136 15.2475H157.03C156.818 15.4593 156.5 15.6711 155.971 15.6711Z" fill="#FFFCF7"/>
<path d="M173.229 15.6711H163.064V8.6828H171.217C171.429 8.6828 171.641 8.6828 171.852 8.78872C172.064 8.89456 172.17 9.00047 172.276 9.21222H172.382V6.45927H172.276C172.17 6.67104 171.958 6.77692 171.852 6.8828C171.746 6.98868 171.429 6.98868 171.217 6.98868H163.064V2.32986H172.594C173.123 2.32986 173.441 2.54162 173.652 2.85927H173.758L173.441 0.635742H160.629V0.741622C160.841 0.847506 160.946 0.953389 161.052 1.16516C161.158 1.37692 161.158 1.58868 161.158 1.80045V16.3063C161.158 16.5181 161.158 16.7299 161.052 16.9416C160.946 17.1534 160.841 17.2593 160.629 17.3651V17.4711H174.076L174.394 15.2475H174.288C174.076 15.4593 173.758 15.6711 173.229 15.6711Z" fill="#FFFCF7"/>
</g>
</g>
</g>
<defs>
<clipPath id="clip0_5_6505">
<rect width="216" height="18" fill="white" transform="translate(0.429688)"/>
</clipPath>
<clipPath id="clip1_5_6505">
<rect width="216" height="18" fill="white" transform="translate(0.429688)"/>
</clipPath>
</defs>
</svg>
