<svg width="66" height="26" viewBox="0 0 66 26" fill="none" xmlns="http://www.w3.org/2000/svg">
<g clip-path="url(#clip0_5_6495)">
<g clip-path="url(#clip1_5_6495)">
<g clip-path="url(#clip2_5_6495)">
<path d="M14.7646 24.3156V15.5329C14.7646 14.19 14.3975 13.1136 13.6613 12.302C12.9251 11.4904 11.9125 11.0846 10.6197 11.0846C9.32697 11.0846 8.28733 11.4962 7.50277 12.3194C6.71633 13.1426 6.32402 14.2151 6.32402 15.5329V24.3156C6.32402 24.5437 6.24095 24.7272 6.07668 24.8664C5.91051 25.0055 5.71534 25.075 5.48732 25.075H1.64768C1.41966 25.075 1.23029 24.9997 1.07763 24.847C0.924972 24.6944 0.849609 24.505 0.849609 24.277V1.301C0.849609 1.07298 0.924972 0.883608 1.07763 0.73095C1.23029 0.578292 1.41966 0.50293 1.64768 0.50293H5.48732C5.71534 0.50293 5.91051 0.572495 6.07668 0.711626C6.24095 0.850758 6.32402 1.03433 6.32402 1.26236V7.83629C6.32402 7.83629 8.47091 6.02759 12.3318 6.02759C14.7395 6.02759 16.6661 6.78894 18.1115 8.30974C19.557 9.8305 20.2797 11.7436 20.2797 14.0509V24.3156C20.2797 24.5437 20.1966 24.7272 20.0323 24.8664C19.8681 25.0055 19.671 25.075 19.443 25.075H15.6014C15.3734 25.075 15.1763 25.0055 15.012 24.8664C14.8458 24.7292 14.7646 24.5456 14.7646 24.3156Z" fill="#FFFCF7"/>
<path d="M44.874 24.3154V15.5327C44.874 14.1897 44.5069 13.1134 43.7706 12.3018C43.0344 11.4902 42.0218 11.0843 40.7291 11.0843C39.4363 11.0843 38.3967 11.496 37.6121 12.3191C36.8257 13.1423 36.4334 14.2148 36.4334 15.5327V24.3154C36.4334 24.5434 36.3503 24.7269 36.1861 24.8661C36.0199 25.0052 35.8247 25.0748 35.5967 25.0748H31.7571C31.529 25.0748 31.3397 24.9994 31.187 24.8467C31.0343 24.6941 30.959 24.5047 30.959 24.2767V7.34714C30.959 7.11911 31.0343 6.92974 31.187 6.7771C31.3397 6.62442 31.529 6.54906 31.7571 6.54906H35.5967C35.8247 6.54906 36.0199 6.61862 36.1861 6.75774C36.3503 6.89691 36.4334 7.08049 36.4334 7.30848V7.83604C36.4334 7.83604 38.5803 6.02734 42.4412 6.02734C44.8489 6.02734 46.7755 6.78869 48.2209 8.30944C49.6663 9.83025 50.389 11.7433 50.389 14.0506V24.3154C50.389 24.5434 50.306 24.7269 50.1417 24.8661C49.9775 25.0052 49.7803 25.0748 49.5523 25.0748H45.7127C45.4847 25.0748 45.2876 25.0052 45.1233 24.8661C44.9552 24.7289 44.874 24.5453 44.874 24.3154Z" fill="#FFFCF7"/>
<path d="M27.5591 25.0766H23.7195C23.4915 25.0766 23.2944 24.9954 23.1302 24.8292C22.9659 24.665 22.8828 24.4679 22.8828 24.2399V7.39724C22.8828 7.1692 22.964 6.97404 23.1302 6.80789C23.2944 6.64362 23.4915 6.56055 23.7195 6.56055H27.5591C27.7872 6.56055 27.9766 6.64362 28.1292 6.80789C28.2819 6.97211 28.3572 7.1692 28.3572 7.39724V24.2399C28.3572 24.4679 28.2819 24.665 28.1292 24.8292C27.9766 24.9954 27.7872 25.0766 27.5591 25.0766Z" fill="#FFFCF7"/>
<path d="M52.7402 19.5639V11.1619V6.56093V1.3377C52.7402 1.08455 52.8215 0.881655 52.9877 0.728997C53.1518 0.576339 53.3489 0.500977 53.5771 0.500977H57.4549C57.6582 0.500977 57.8416 0.576339 58.0057 0.728997C58.1703 0.881655 58.2532 1.08455 58.2532 1.3377V6.56093H61.7235C61.9517 6.56093 62.1549 6.644 62.3322 6.80827C62.5101 6.97249 62.599 7.16964 62.599 7.39762V10.3252C62.599 10.5281 62.5101 10.7194 62.3322 10.8953C62.1549 11.073 61.9517 11.1619 61.7235 11.1619H58.2532V18.2711C58.2532 19.0827 58.4427 19.6393 58.8233 19.9446C59.2038 20.2479 59.6347 20.4006 60.1159 20.4006C60.6225 20.4006 61.1809 20.2228 61.7896 19.8692C62.4735 19.4383 62.9933 19.4885 63.3489 20.0219L64.6802 22.1513C64.9835 22.6325 64.9469 23.0885 64.5664 23.5195C63.2986 24.8373 61.4745 25.4963 59.092 25.4963C57.3177 25.4963 55.8148 25.0016 54.5857 24.0141C53.3545 23.0248 52.7402 21.5407 52.7402 19.5639Z" fill="#FFFCF7"/>
<path d="M64.18 7.71446V8.15311H64.0469V7.22363H64.371C64.4564 7.22363 64.5082 7.24294 64.5509 7.27775C64.6068 7.32215 64.6419 7.39171 64.6419 7.46905C64.6419 7.54633 64.6053 7.61396 64.5509 7.66035C64.5219 7.68352 64.4889 7.70089 64.4427 7.70862L64.775 8.15118H64.6149L64.2842 7.71253H64.18V7.71446ZM64.3655 7.58886C64.4254 7.58886 64.4564 7.57529 64.4777 7.55405C64.4986 7.53281 64.5123 7.50187 64.5123 7.46905C64.5123 7.43617 64.4986 7.40528 64.4777 7.38399C64.4564 7.36275 64.4254 7.34924 64.3655 7.34924H64.18V7.58886H64.3655Z" fill="#FFFCF7"/>
<path d="M63.3828 7.68751C63.3828 7.13678 63.831 6.68848 64.3817 6.68848C64.9325 6.68848 65.3807 7.13678 65.3807 7.68751C65.3807 8.23824 64.9325 8.68654 64.3817 8.68654C63.831 8.68654 63.3828 8.23824 63.3828 7.68751ZM65.2806 7.68751C65.2806 7.19282 64.8782 6.79086 64.3838 6.79086C63.8889 6.79086 63.487 7.19282 63.487 7.68751C63.487 8.1822 63.8889 8.58411 64.3838 8.58411C64.8766 8.58604 65.2806 8.18413 65.2806 7.68751Z" fill="#FFFCF7"/>
</g>
</g>
</g>
<defs>
<clipPath id="clip0_5_6495">
<rect width="64.58" height="25" fill="white" transform="translate(0.849609 0.5)"/>
</clipPath>
<clipPath id="clip1_5_6495">
<rect width="64.58" height="25" fill="white" transform="translate(0.849609 0.5)"/>
</clipPath>
<clipPath id="clip2_5_6495">
<rect width="64.58" height="24.9987" fill="white" transform="translate(0.849609 0.500977)"/>
</clipPath>
</defs>
</svg>
