<svg width="925" height="381" viewBox="0 0 925 381" fill="none" xmlns="http://www.w3.org/2000/svg">
<g clip-path="url(#clip0_5_6537)">
<g clip-path="url(#clip1_5_6537)">
<path d="M6.74417 244.826C5.99211 245.332 5.79323 246.353 6.29997 247.105C6.80671 247.857 7.82717 248.056 8.57924 247.549L6.74417 244.826ZM218.934 103.834L219.859 102.477C219.304 102.098 218.574 102.096 218.017 102.472L218.934 103.834ZM409.424 233.711L408.499 235.068C409.122 235.494 409.955 235.439 410.517 234.935L409.424 233.711ZM521.78 133.307V131.665C521.377 131.665 520.987 131.814 520.686 132.082L521.78 133.307ZM703.935 133.307V134.949C704.225 134.949 704.511 134.871 704.761 134.725L703.935 133.307ZM899.709 19.2373L880.749 19.3126L890.293 35.695L899.709 19.2373ZM8.57924 247.549L219.851 105.195L218.017 102.472L6.74417 244.826L8.57924 247.549ZM218.009 105.19L408.499 235.068L410.349 232.355L219.859 102.477L218.009 105.19ZM410.517 234.935L522.875 134.531L520.686 132.082L408.329 232.486L410.517 234.935ZM521.78 134.949H703.935V131.665H521.78V134.949ZM704.761 134.725L887.767 28.0959L886.113 25.2584L703.108 131.888L704.761 134.725Z" fill="url(#paint0_linear_5_6537)"/>
<path d="M6.60993 352.801C5.91348 353.382 5.81973 354.417 6.40054 355.113C6.98135 355.81 8.01678 355.904 8.71324 355.324L6.60993 352.801ZM250.971 151.154L251.336 149.553C250.837 149.439 250.313 149.564 249.919 149.893L250.971 151.154ZM407.505 186.899L407.139 188.5C407.582 188.601 408.049 188.514 408.425 188.259L407.505 186.899ZM577.651 71.7778L578.48 70.3605C577.934 70.0413 577.255 70.0636 576.73 70.4177L577.651 71.7778ZM737.588 165.347L736.759 166.764C737.121 166.976 737.551 167.042 737.959 166.946L737.588 165.347ZM916.241 123.875L898.103 118.353L902.391 136.822L916.241 123.875ZM8.71324 355.324L252.022 152.415L249.919 149.893L6.60993 352.801L8.71324 355.324ZM250.605 152.755L407.139 188.5L407.87 185.299L251.336 149.553L250.605 152.755ZM408.425 188.259L578.57 73.1377L576.73 70.4177L406.585 185.54L408.425 188.259ZM576.821 73.195L736.759 166.764L738.417 163.93L578.48 70.3605L576.821 73.195ZM737.959 166.946L902.218 128.816L901.474 125.617L737.217 163.748L737.959 166.946Z" fill="url(#paint1_linear_5_6537)" fill-opacity="0.5"/>
<path d="M7.7797 300.449C6.87518 300.384 6.08907 301.064 6.02385 301.969C5.95864 302.873 6.63903 303.66 7.54354 303.725L7.7797 300.449ZM252.321 319.727L252.203 321.364C252.42 321.379 252.638 321.352 252.844 321.283L252.321 319.727ZM401.587 269.668L401.678 268.028C401.47 268.017 401.262 268.045 401.065 268.111L401.587 269.668ZM605.354 280.866L605.264 282.505C605.495 282.517 605.727 282.481 605.944 282.398L605.354 280.866ZM742.763 227.986L743.352 229.519C743.605 229.421 743.828 229.264 744.005 229.06L742.763 227.986ZM866.981 84.2432L849.072 90.4684L863.418 102.866L866.981 84.2432ZM7.54354 303.725L252.203 321.364L252.44 318.089L7.7797 300.449L7.54354 303.725ZM252.844 321.283L402.109 271.225L401.065 268.111L251.799 318.17L252.844 321.283ZM401.497 271.307L605.264 282.505L605.444 279.226L401.678 268.028L401.497 271.307ZM605.944 282.398L743.352 229.519L742.173 226.454L604.764 279.333L605.944 282.398ZM744.005 229.06L858.561 96.4983L856.076 94.351L741.521 226.912L744.005 229.06Z" fill="url(#paint2_linear_5_6537)" fill-opacity="0.3"/>
<path d="M0 60.6094H924.432" stroke="#C0D6EA" stroke-opacity="0.15" stroke-width="1.09467"/>
<path d="M0 166.361H924.432" stroke="#C0D6EA" stroke-opacity="0.15" stroke-width="1.09467"/>
<path d="M0 261.422H924.432" stroke="#C0D6EA" stroke-opacity="0.15" stroke-width="1.09467"/>
<path d="M0 362.42H924.432" stroke="#C0D6EA" stroke-opacity="0.15" stroke-width="1.09467"/>
</g>
</g>
<defs>
<linearGradient id="paint0_linear_5_6537" x1="453.686" y1="38.8429" x2="453.686" y2="246.187" gradientUnits="userSpaceOnUse">
<stop stop-color="#1CE8AB"/>
<stop offset="1" stop-color="#70A5FE"/>
</linearGradient>
<linearGradient id="paint1_linear_5_6537" x1="451.743" y1="72.3034" x2="448.168" y2="354.135" gradientUnits="userSpaceOnUse">
<stop stop-color="#1CE8AB"/>
<stop offset="1" stop-color="#70A5FE"/>
</linearGradient>
<linearGradient id="paint2_linear_5_6537" x1="440.725" y1="82.7005" x2="441.429" y2="354.573" gradientUnits="userSpaceOnUse">
<stop stop-color="#1CE8AB"/>
<stop offset="1" stop-color="#70A5FE"/>
</linearGradient>
<clipPath id="clip0_5_6537">
<rect width="925" height="381" fill="white"/>
</clipPath>
<clipPath id="clip1_5_6537">
<rect width="925" height="343.728" fill="white" transform="translate(0 19.2373)"/>
</clipPath>
</defs>
</svg>
