<svg width="29" height="28" viewBox="0 0 29 28" fill="none" xmlns="http://www.w3.org/2000/svg">
<g clip-path="url(#clip0_5_6662)">
<g clip-path="url(#clip1_5_6662)">
<path d="M14.25 27.5C21.8439 27.5 28 21.3439 28 13.75C28 6.15608 21.8439 0 14.25 0C6.65608 0 0.5 6.15608 0.5 13.75C0.5 21.3439 6.65608 27.5 14.25 27.5Z" fill="white"/>
<mask id="mask0_5_6662" style="mask-type:luminance" maskUnits="userSpaceOnUse" x="8" y="7" width="13" height="12">
<path d="M20.1495 7.20508H8.35938V18.9952H20.1495V7.20508Z" fill="white"/>
</mask>
<g mask="url(#mask0_5_6662)">
<path d="M11.029 8.48378C11.029 9.19 10.5147 9.76248 9.66915 9.76248C8.8737 9.76138 8.35938 9.19 8.35938 8.48378C8.35938 7.77757 8.89004 7.20508 9.70293 7.20508C10.5158 7.20508 11.0127 7.75988 11.029 8.48378ZM8.42584 18.9952V10.7704H10.9462V18.9952H8.42584Z" fill="black"/>
<path d="M12.4551 13.3942C12.4551 12.3686 12.4225 11.511 12.3887 10.7705H14.5778L14.6944 11.9144H14.7445C15.0758 11.3761 15.8887 10.5859 17.2486 10.5859C18.907 10.5859 20.1503 11.7132 20.1503 14.1347V18.9953H17.6299V14.4375C17.6299 13.3776 17.2649 12.6549 16.3529 12.6549C15.6566 12.6549 15.2425 13.1422 15.0594 13.613C14.993 13.781 14.9766 14.0164 14.9766 14.2518V18.9942H12.4562V13.3942H12.4551Z" fill="black"/>
</g>
</g>
</g>
<defs>
<clipPath id="clip0_5_6662">
<rect width="28" height="28" fill="white" transform="translate(0.5)"/>
</clipPath>
<clipPath id="clip1_5_6662">
<rect width="28" height="28" fill="white" transform="translate(0.5)"/>
</clipPath>
</defs>
</svg>
