<svg width="29" height="28" viewBox="0 0 29 28" fill="none" xmlns="http://www.w3.org/2000/svg">
<g clip-path="url(#clip0_5_6649)">
<g clip-path="url(#clip1_5_6649)">
<g clip-path="url(#clip2_5_6649)">
<path d="M14.25 27.5C21.8439 27.5 28 21.3439 28 13.75C28 6.15608 21.8439 0 14.25 0C6.65608 0 0.5 6.15608 0.5 13.75C0.5 21.3439 6.65608 27.5 14.25 27.5Z" fill="white"/>
<path d="M11.9028 19.3779C17.1861 19.3779 20.0754 15.0009 20.0754 11.2054C20.0754 11.0811 20.0728 10.9573 20.0672 10.8341C20.6281 10.4287 21.1155 9.92272 21.5 9.34675C20.9853 9.57554 20.4315 9.72954 19.8505 9.79897C20.4435 9.44339 20.8988 8.88086 21.1136 8.21028C20.5586 8.53928 19.944 8.7784 19.2897 8.9075C18.7655 8.3492 18.0193 8 17.193 8C15.6068 8 14.3205 9.28634 14.3205 10.8719C14.3205 11.0973 14.3458 11.3165 14.395 11.5269C12.0078 11.4067 9.89096 10.2638 8.47425 8.52584C8.22757 8.9503 8.08531 9.44339 8.08531 9.96951C8.08531 10.966 8.59241 11.8458 9.36353 12.3604C8.89228 12.3459 8.44959 12.2165 8.06267 12.0012C8.06225 12.0132 8.06225 12.025 8.06225 12.0379C8.06225 13.4289 9.05233 14.5903 10.3666 14.8535C10.1253 14.9193 9.87132 14.9546 9.60923 14.9546C9.42446 14.9546 9.24438 14.9364 9.06939 14.9028C9.43507 16.0441 10.4954 16.8746 11.7526 16.8978C10.7695 17.6683 9.5311 18.1273 8.18514 18.1273C7.95358 18.1273 7.72484 18.1141 7.5 18.0875C8.77121 18.9023 10.2804 19.3779 11.9028 19.3779Z" fill="black"/>
</g>
</g>
</g>
<defs>
<clipPath id="clip0_5_6649">
<rect width="28" height="28" fill="white" transform="translate(0.5)"/>
</clipPath>
<clipPath id="clip1_5_6649">
<rect width="28" height="28" fill="white" transform="translate(0.5)"/>
</clipPath>
<clipPath id="clip2_5_6649">
<rect width="28" height="28" fill="white" transform="translate(0.5)"/>
</clipPath>
</defs>
</svg>
